<svg width="165" height="106" viewBox="0 0 165 106" fill="none" xmlns="http://www.w3.org/2000/svg">
<path d="M148.03 103.341H139.631C138.319 103.341 137.253 102.275 137.253 100.963V100.082C135.759 100.185 134.223 100.168 132.601 100.015V100.963C132.601 102.275 131.535 103.341 130.223 103.341H121.848C120.608 103.341 119.564 102.369 119.473 101.129L119.47 100.963V100.34C119.414 99.146 119.022 95.993 116.599 93.497C114.984 91.847 113.55 89.684 112.342 87.071C111.616 85.666 111.053 84.169 110.687 82.661L110.658 82.529C110.298 81.021 110.115 79.484 110.115 77.959C110.115 75.068 110.73 72.27 111.943 69.643L112.467 68.507L113.46 69.269C116.671 71.735 120.511 73.038 124.564 73.038C133.036 73.038 140.34 67.288 142.329 59.056C142.666 57.661 143.446 56.376 144.525 55.436C146.283 53.901 148.535 52.952 151.218 52.614C152.181 52.492 153.118 52.927 153.646 53.752C154.177 54.581 154.184 55.616 153.664 56.454C152.5 58.319 152.147 60.098 152.616 61.74C152.622 61.767 152.628 61.793 152.634 61.817C155.725 64.38 158.021 67.574 159.317 71.104H160.474C162.406 71.104 164.007 72.685 164.044 74.629V80.915C164.044 82.869 162.454 84.459 160.5 84.459H159.462C158.27 87.879 156.144 91.013 153.28 93.562L152.908 93.879C150.584 95.979 150.418 98.443 150.409 98.916V100.964C150.409 102.274 149.342 103.341 148.03 103.341ZM139.253 97.872V100.963C139.253 101.171 139.423 101.341 139.631 101.341H148.03C148.239 101.341 148.409 101.171 148.409 100.963V98.896C148.427 98.009 148.707 94.978 151.588 92.376L151.956 92.063C151.944 92.073 151.926 92.089 151.908 92.107C154.737 89.587 156.754 86.509 157.781 83.165L157.998 82.459H160.5C161.352 82.459 162.044 81.767 162.044 80.915V74.647C162.028 73.804 161.323 73.103 160.474 73.103H157.879L157.653 72.413C156.501 68.877 154.239 65.677 151.113 63.156L150.858 62.951L150.774 62.634C150.741 62.507 150.707 62.363 150.677 62.229C150.062 60.079 150.49 57.76 151.965 55.396C152.124 55.139 152.016 54.915 151.961 54.83C151.897 54.729 151.752 54.568 151.467 54.599C149.186 54.886 147.292 55.675 145.84 56.944C145.069 57.616 144.513 58.533 144.272 59.527C142.067 68.661 133.962 75.04 124.564 75.04C120.497 75.04 116.624 73.857 113.284 71.608C112.507 73.638 112.114 75.77 112.114 77.962C112.114 79.351 112.283 80.751 112.616 82.126L112.644 82.267C112.998 83.651 113.492 84.945 114.137 86.197C115.269 88.639 116.573 90.615 118.031 92.105C120.933 95.095 121.401 98.831 121.469 100.297L121.47 100.966C121.482 101.187 121.65 101.344 121.848 101.344H130.223C130.431 101.344 130.601 101.174 130.601 100.966V97.76L131.731 97.907C134.003 98.203 136.085 98.223 138.144 97.997L139.253 97.872ZM148.854 73.554C147.155 73.554 145.773 72.172 145.773 70.473C145.773 68.775 147.155 67.393 148.854 67.393C150.552 67.393 151.934 68.775 151.934 70.473C151.934 72.172 150.552 73.554 148.854 73.554ZM148.854 69.392C148.258 69.392 147.773 69.876 147.773 70.472C147.773 71.068 148.258 71.553 148.854 71.553C149.45 71.553 149.934 71.068 149.934 70.472C149.934 69.876 149.449 69.392 148.854 69.392Z" fill="#252422"/>
<path fill-rule="evenodd" clip-rule="evenodd" d="M86.7141 59.3169L86.7101 59.3239C82.9251 65.1539 77.5221 69.6159 70.5881 72.7319L70.5761 72.7369C63.7381 75.7539 55.7231 77.2269 46.5851 77.2269H28.2801V105.018H0.952148V0.217896H46.5841C55.7281 0.217896 63.7491 1.74089 70.5921 4.85989C77.5241 7.97489 82.9261 12.4359 86.7101 18.2649C90.5021 24.1069 92.3601 30.9779 92.3601 38.7939C92.3601 46.5199 90.4991 53.3829 86.7181 59.3099L86.7141 59.3169ZM26.2801 75.2259H46.5841C55.5121 75.2259 63.2401 73.7859 69.7681 70.9059C76.3921 67.9299 81.4801 63.7059 85.0321 58.2339C88.5841 52.6659 90.3601 46.1859 90.3601 38.7939C90.3601 31.3059 88.5841 24.8259 85.0321 19.3539C81.4801 13.8819 76.3921 9.6579 69.7681 6.6819C63.2401 3.7059 55.5121 2.2179 46.5841 2.2179H2.95215V103.018H26.2801V75.2259ZM59.9961 27.3739L59.9841 27.3639C56.8331 24.7099 52.0401 23.2259 45.2881 23.2259H28.2801V54.2179H45.2881C52.0431 54.2179 56.8421 52.7799 59.9961 50.2139C63.1071 47.5879 64.7442 43.8749 64.7442 38.7939C64.7442 33.5959 63.0951 29.9019 60.0081 27.3839L59.9961 27.3739ZM45.2881 56.2179C52.2961 56.2179 57.6241 54.7299 61.2721 51.7539C64.9201 48.6819 66.7441 44.3619 66.7441 38.7939C66.7441 33.1299 64.9201 28.8099 61.2721 25.8339C57.6241 22.7619 52.2961 21.2259 45.2881 21.2259H26.2801V56.2179H45.2881Z" fill="#252422"/>
<path d="M34.4678 93.787C34.8728 93.691 35.3108 93.627 35.7798 93.595C36.2488 93.563 36.7128 93.547 37.1718 93.547C37.6628 93.547 38.1588 93.595 38.6598 93.691C39.1718 93.787 39.6358 93.963 40.0518 94.219C40.4678 94.475 40.8038 94.827 41.0598 95.275C41.3268 95.723 41.4598 96.294 41.4598 96.987C41.4598 97.67 41.3368 98.246 41.0918 98.715C40.8468 99.185 40.5208 99.569 40.1158 99.867C39.7108 100.155 39.2468 100.363 38.7238 100.491C38.2008 100.619 37.6628 100.683 37.1078 100.683C37.0548 100.683 36.9638 100.683 36.8358 100.683C36.7188 100.683 36.5908 100.683 36.4518 100.683C36.3238 100.673 36.1958 100.662 36.0678 100.651C35.9398 100.641 35.8488 100.63 35.7958 100.619V104.875H34.4678V93.787ZM37.2038 94.699C36.9268 94.699 36.6598 94.705 36.4038 94.715C36.1478 94.726 35.9448 94.753 35.7958 94.795V99.435C35.8488 99.457 35.9348 99.473 36.0518 99.483C36.1688 99.483 36.2918 99.489 36.4198 99.499C36.5478 99.499 36.6708 99.499 36.7878 99.499C36.9048 99.499 36.9908 99.499 37.0438 99.499C37.4068 99.499 37.7638 99.467 38.1158 99.403C38.4788 99.329 38.8038 99.201 39.0918 99.019C39.3798 98.838 39.6088 98.582 39.7798 98.251C39.9608 97.921 40.0518 97.499 40.0518 96.987C40.0518 96.55 39.9668 96.187 39.7958 95.899C39.6358 95.601 39.4168 95.366 39.1398 95.195C38.8728 95.014 38.5688 94.886 38.2278 94.811C37.8868 94.737 37.5458 94.699 37.2038 94.699Z" fill="#252422"/>
<path d="M46.4908 98.107C46.1708 98.001 45.8668 97.947 45.5788 97.947C45.1198 97.947 44.7578 98.075 44.4908 98.331C44.2238 98.577 44.0588 98.891 43.9948 99.275V104.875H42.7148V96.875H43.6108L43.8508 97.851H43.9148C44.1178 97.489 44.3578 97.211 44.6348 97.019C44.9228 96.817 45.2858 96.715 45.7228 96.715C46.0318 96.715 46.3788 96.769 46.7628 96.875L46.4908 98.107Z" fill="#252422"/>
<path d="M47.7051 100.875C47.7051 99.521 48.0041 98.486 48.6011 97.771C49.2091 97.046 50.0781 96.683 51.2091 96.683C51.8061 96.683 52.3241 96.785 52.7611 96.987C53.2091 97.179 53.5771 97.462 53.8651 97.835C54.1531 98.198 54.3661 98.641 54.5051 99.163C54.6441 99.675 54.7131 100.246 54.7131 100.875C54.7131 102.23 54.4091 103.27 53.8011 103.995C53.2041 104.71 52.3401 105.067 51.2091 105.067C50.6121 105.067 50.0891 104.971 49.6411 104.779C49.2041 104.577 48.8411 104.294 48.5531 103.931C48.2651 103.558 48.0521 103.115 47.9131 102.603C47.7741 102.081 47.7051 101.505 47.7051 100.875ZM49.0331 100.875C49.0331 101.281 49.0701 101.67 49.1451 102.043C49.2301 102.417 49.3581 102.742 49.5291 103.019C49.7001 103.297 49.9241 103.521 50.2011 103.691C50.4781 103.862 50.8141 103.947 51.2091 103.947C52.6601 103.958 53.3851 102.934 53.3851 100.875C53.3851 100.459 53.3421 100.065 53.2571 99.691C53.1821 99.318 53.0601 98.993 52.8891 98.715C52.7181 98.438 52.4941 98.219 52.2171 98.059C51.9401 97.889 51.6041 97.803 51.2091 97.803C49.7581 97.793 49.0331 98.817 49.0331 100.875Z" fill="#252422"/>
<path d="M62.8916 96.875V104.875H61.6116V97.995H58.3796V104.875H57.0996V97.995H55.8516V96.875H57.0996V96.427C57.0996 95.425 57.3446 94.699 57.8356 94.251C58.3366 93.793 59.0676 93.563 60.0276 93.563C60.6566 93.563 61.2166 93.627 61.7076 93.755C62.1986 93.873 62.5826 94.017 62.8596 94.187L62.4276 95.211C62.1396 95.03 61.7986 94.897 61.4036 94.811C61.0086 94.726 60.5876 94.683 60.1396 94.683C59.7446 94.683 59.4306 94.731 59.1956 94.827C58.9716 94.913 58.7956 95.051 58.6676 95.243C58.5506 95.425 58.4706 95.654 58.4276 95.931C58.3956 96.209 58.3796 96.523 58.3796 96.875H62.8916Z" fill="#252422"/>
<path d="M64.3145 96.875H65.5625V95.291L66.8425 94.923V96.875H69.0184V97.995H66.8425V102.427C66.8425 102.982 66.9115 103.377 67.0505 103.611C67.1895 103.835 67.4234 103.947 67.7544 103.947C68.0314 103.947 68.2665 103.921 68.4585 103.867C68.6505 103.803 68.8634 103.723 69.0984 103.627L69.3865 104.603C69.0985 104.742 68.7835 104.854 68.4425 104.939C68.1015 105.025 67.7334 105.067 67.3384 105.067C66.6874 105.067 66.2294 104.886 65.9624 104.523C65.6954 104.15 65.5625 103.531 65.5625 102.667V97.995H64.3145V96.875Z" fill="#252422"/>
<path fill-rule="evenodd" clip-rule="evenodd" d="M124.781 72.937C134.17 72.937 141.781 65.326 141.781 55.937C141.781 46.548 134.17 38.937 124.781 38.937C115.392 38.937 107.781 46.548 107.781 55.937C107.781 65.326 115.392 72.937 124.781 72.937ZM124.781 74.937C135.275 74.937 143.781 66.43 143.781 55.937C143.781 45.444 135.275 36.937 124.781 36.937C114.288 36.937 105.781 45.444 105.781 55.937C105.781 66.43 114.288 74.937 124.781 74.937Z" fill="#252422"/>
<path d="M122.69 57.84V59.136H127.599V61.057H122.69V64.937H118.986V61.057H116.781V59.136H118.986V46.937H125.872C128.039 46.937 129.728 47.4 130.94 48.326C132.168 49.252 132.781 50.61 132.781 52.4C132.781 54.175 132.168 55.525 130.94 56.451C129.728 57.377 128.039 57.84 125.872 57.84H122.69ZM129.054 52.423C129.054 51.636 128.774 51.034 128.213 50.618C127.668 50.201 126.88 49.993 125.849 49.993H122.69V54.9H125.849C126.88 54.9 127.668 54.692 128.213 54.275C128.774 53.843 129.054 53.225 129.054 52.423Z" fill="#252422"/>
</svg>
