<svg width="182" height="115" viewBox="0 0 182 115" fill="none" xmlns="http://www.w3.org/2000/svg">
<path fill-rule="evenodd" clip-rule="evenodd" d="M114.818 0.223877C115.189 0.223877 115.529 0.428878 115.702 0.756878L122.46 13.5659L136.731 16.0349C137.097 16.0979 137.397 16.3589 137.512 16.7109C137.626 17.0639 137.536 17.4509 137.278 17.7169L127.184 28.1029L129.245 42.4379C129.298 42.8049 129.144 43.1709 128.843 43.3889C128.543 43.6069 128.147 43.6409 127.814 43.4769L114.818 37.0859L101.821 43.4769C101.488 43.6409 101.092 43.6069 100.792 43.3889C100.492 43.1709 100.337 42.8049 100.39 42.4379L102.451 28.1029L92.3568 17.7179C92.0988 17.4519 92.0088 17.0649 92.1228 16.7119C92.2378 16.3589 92.5388 16.0989 92.9038 16.0359L107.175 13.5669L113.933 0.757877C114.106 0.428877 114.447 0.223877 114.818 0.223877ZM114.818 3.36688L108.714 14.9349C108.57 15.2089 108.306 15.4009 108 15.4539L95.1128 17.6839L104.228 27.0629C104.444 27.2849 104.545 27.5949 104.501 27.9019L102.639 40.8479L114.376 35.0769C114.655 34.9399 114.981 34.9399 115.259 35.0769L126.996 40.8479L125.134 27.9019C125.09 27.5949 125.191 27.2849 125.407 27.0629L134.523 17.6839L121.635 15.4539C121.329 15.4009 121.066 15.2099 120.921 14.9349L114.818 3.36688Z" fill="#252422"/>
<path fill-rule="evenodd" clip-rule="evenodd" d="M158.693 28.5819C159.064 28.5819 159.404 28.7869 159.577 29.1149L166.335 41.9239L180.606 44.3929C180.972 44.4559 181.272 44.7169 181.387 45.0689C181.501 45.4219 181.411 45.8089 181.153 46.0749L171.059 56.4609L173.12 70.7959C173.173 71.1629 173.019 71.5289 172.718 71.7469C172.418 71.9649 172.022 71.9989 171.689 71.8359L158.693 65.4449L145.696 71.8359C145.363 71.9989 144.967 71.9649 144.667 71.7469C144.367 71.5289 144.212 71.1629 144.265 70.7959L146.326 56.4609L136.232 46.0749C135.974 45.8089 135.884 45.4219 135.998 45.0689C136.113 44.7159 136.414 44.4559 136.779 44.3929L151.05 41.9239L157.808 29.1149C157.981 28.7869 158.322 28.5819 158.693 28.5819ZM158.693 31.7249L152.589 43.2929C152.445 43.5669 152.181 43.7589 151.875 43.8119L138.988 46.0419L148.103 55.4209C148.319 55.6429 148.42 55.9529 148.376 56.2599L146.514 69.2059L158.251 63.4349C158.53 63.2979 158.856 63.2979 159.134 63.4349L170.871 69.2059L169.009 56.2599C168.965 55.9529 169.066 55.6429 169.282 55.4209L178.398 46.0419L165.51 43.8119C165.204 43.7589 164.941 43.5679 164.796 43.2929L158.693 31.7249Z" fill="#252422"/>
<path fill-rule="evenodd" clip-rule="evenodd" d="M112.968 49.0249C113.339 49.0249 113.679 49.2299 113.852 49.5579L120.611 62.3669L134.882 64.8359C135.247 64.8989 135.548 65.1599 135.662 65.5119C135.777 65.8649 135.687 66.2519 135.428 66.5179L125.334 76.9029L127.396 91.2389C127.449 91.6059 127.294 91.9719 126.994 92.1899C126.694 92.4079 126.298 92.4419 125.965 92.2789L112.968 85.8879L99.9708 92.2789C99.6378 92.4419 99.2418 92.4079 98.9418 92.1899C98.6418 91.9719 98.4868 91.6059 98.5398 91.2389L100.602 76.9029L90.5078 66.5199C90.2488 66.2539 90.1588 65.8669 90.2738 65.5139C90.3888 65.1609 90.6888 64.9009 91.0538 64.8379L105.325 62.3689L112.084 49.5599C112.257 49.2309 112.597 49.0249 112.968 49.0249ZM112.968 52.1679L106.865 63.7359C106.72 64.0099 106.456 64.2019 106.151 64.2549L93.2628 66.4849L102.379 75.8639C102.595 76.0859 102.696 76.3959 102.651 76.7029L100.79 89.6489L112.527 83.8779C112.805 83.7409 113.131 83.7409 113.409 83.8779L125.146 89.6489L123.285 76.7029C123.241 76.3959 123.341 76.0859 123.557 75.8639L132.673 66.4849L119.785 64.2549C119.48 64.2019 119.216 64.0109 119.071 63.7359L112.968 52.1679Z" fill="#252422"/>
<path fill-rule="evenodd" clip-rule="evenodd" d="M82.4709 88.2979V111.018H0.422852V6.2179H80.5989V28.9379H27.6069V46.8259H74.4069V68.9699H27.6069V88.2979H82.4709ZM25.6069 66.9699H72.4069V48.8259H25.6069V26.9379H78.5989V8.2179H2.42285V109.018H80.4709V90.2979H25.6069V66.9699Z" fill="#252422"/>
<path d="M93.8311 99.818H99.9271V101.002H95.159V104.666H99.5271V105.85H95.159V109.834H100.007V111.018H93.8311V99.818Z" fill="#252422"/>
<path d="M104.377 106.922L101.689 103.018H103.257L104.777 105.226L105.225 106.138L105.689 105.226L107.241 103.018H108.681L105.977 106.858L108.841 111.018H107.321L105.625 108.586L105.145 107.626L104.649 108.586L102.921 111.018H101.497L104.377 106.922Z" fill="#252422"/>
<path d="M110.516 103.018H111.396L111.636 103.978H111.7C111.946 103.605 112.26 103.322 112.644 103.13C113.039 102.927 113.487 102.826 113.988 102.826C115.055 102.826 115.85 103.141 116.372 103.77C116.895 104.399 117.156 105.429 117.156 106.858C117.156 107.53 117.066 108.138 116.884 108.682C116.714 109.215 116.468 109.669 116.148 110.042C115.828 110.415 115.439 110.703 114.98 110.906C114.532 111.109 114.031 111.21 113.476 111.21C113.082 111.21 112.767 111.183 112.532 111.13C112.308 111.087 112.063 111.007 111.796 110.89V114.218H110.516V103.018ZM113.748 103.946C113.204 103.946 112.772 104.09 112.452 104.378C112.143 104.655 111.924 105.082 111.796 105.658V109.626C111.988 109.775 112.207 109.893 112.452 109.978C112.698 110.053 113.023 110.09 113.428 110.09C114.164 110.09 114.746 109.818 115.172 109.274C115.61 108.719 115.828 107.909 115.828 106.842C115.828 106.405 115.791 106.01 115.716 105.658C115.642 105.295 115.519 104.991 115.348 104.746C115.188 104.49 114.975 104.293 114.708 104.154C114.452 104.015 114.132 103.946 113.748 103.946Z" fill="#252422"/>
<path d="M125.013 110.378C124.693 110.634 124.287 110.837 123.797 110.986C123.317 111.135 122.805 111.21 122.261 111.21C121.653 111.21 121.125 111.114 120.677 110.922C120.229 110.719 119.861 110.437 119.573 110.074C119.285 109.701 119.071 109.258 118.933 108.746C118.794 108.234 118.725 107.658 118.725 107.018C118.725 105.653 119.029 104.613 119.637 103.898C120.245 103.183 121.114 102.826 122.245 102.826C122.607 102.826 122.97 102.869 123.333 102.954C123.695 103.029 124.021 103.178 124.309 103.402C124.597 103.626 124.831 103.946 125.013 104.362C125.194 104.767 125.285 105.306 125.285 105.978C125.285 106.33 125.253 106.719 125.189 107.146H120.053C120.053 107.615 120.101 108.031 120.197 108.394C120.293 108.757 120.442 109.066 120.645 109.322C120.847 109.567 121.109 109.759 121.429 109.898C121.759 110.026 122.159 110.09 122.629 110.09C122.991 110.09 123.354 110.026 123.717 109.898C124.079 109.77 124.351 109.621 124.533 109.45L125.013 110.378ZM122.261 103.946C121.631 103.946 121.125 104.111 120.741 104.442C120.367 104.773 120.143 105.338 120.069 106.138H124.037C124.037 105.327 123.882 104.762 123.573 104.442C123.263 104.111 122.826 103.946 122.261 103.946Z" fill="#252422"/>
<path d="M131.073 104.25C130.753 104.143 130.449 104.09 130.161 104.09C129.702 104.09 129.339 104.218 129.073 104.474C128.806 104.719 128.641 105.034 128.577 105.418V111.018H127.297V103.018H128.193L128.433 103.994H128.497C128.699 103.631 128.939 103.354 129.217 103.162C129.505 102.959 129.867 102.858 130.305 102.858C130.614 102.858 130.961 102.911 131.345 103.018L131.073 104.25Z" fill="#252422"/>
<path d="M133.006 103.018H134.286V111.018H133.006V103.018ZM132.734 100.586C132.734 100.341 132.814 100.133 132.974 99.9619C133.145 99.7809 133.358 99.6899 133.614 99.6899C133.87 99.6899 134.089 99.7809 134.27 99.9619C134.451 100.133 134.542 100.341 134.542 100.586C134.542 100.831 134.451 101.034 134.27 101.194C134.089 101.354 133.87 101.434 133.614 101.434C133.358 101.434 133.145 101.354 132.974 101.194C132.814 101.034 132.734 100.831 132.734 100.586Z" fill="#252422"/>
<path d="M142.854 110.378C142.534 110.634 142.129 110.837 141.638 110.986C141.158 111.135 140.646 111.21 140.102 111.21C139.494 111.21 138.966 111.114 138.518 110.922C138.07 110.719 137.702 110.437 137.414 110.074C137.126 109.701 136.913 109.258 136.774 108.746C136.636 108.234 136.566 107.658 136.566 107.018C136.566 105.653 136.87 104.613 137.478 103.898C138.086 103.183 138.956 102.826 140.086 102.826C140.449 102.826 140.812 102.869 141.174 102.954C141.537 103.029 141.862 103.178 142.15 103.402C142.438 103.626 142.673 103.946 142.854 104.362C143.036 104.767 143.126 105.306 143.126 105.978C143.126 106.33 143.094 106.719 143.03 107.146H137.894C137.894 107.615 137.942 108.031 138.038 108.394C138.134 108.757 138.284 109.066 138.486 109.322C138.689 109.567 138.95 109.759 139.27 109.898C139.601 110.026 140.001 110.09 140.47 110.09C140.833 110.09 141.196 110.026 141.558 109.898C141.921 109.77 142.193 109.621 142.374 109.45L142.854 110.378ZM140.102 103.946C139.473 103.946 138.966 104.111 138.582 104.442C138.209 104.773 137.985 105.338 137.91 106.138H141.878C141.878 105.327 141.724 104.762 141.414 104.442C141.105 104.111 140.668 103.946 140.102 103.946Z" fill="#252422"/>
<path d="M150.277 111.018V106.458C150.277 105.626 150.155 105.002 149.909 104.586C149.675 104.159 149.237 103.946 148.597 103.946C148.032 103.946 147.563 104.101 147.189 104.41C146.827 104.709 146.571 105.087 146.421 105.546V111.018H145.141V103.018H146.037L146.277 103.994H146.341C146.597 103.653 146.939 103.375 147.365 103.162C147.803 102.938 148.32 102.826 148.917 102.826C149.355 102.826 149.739 102.879 150.069 102.986C150.4 103.082 150.672 103.258 150.885 103.514C151.109 103.77 151.275 104.117 151.381 104.554C151.499 104.981 151.557 105.525 151.557 106.186V111.018H150.277Z" fill="#252422"/>
<path d="M159.345 110.49C159.025 110.725 158.647 110.901 158.209 111.018C157.772 111.146 157.313 111.21 156.833 111.21C156.215 111.21 155.692 111.114 155.265 110.922C154.839 110.719 154.487 110.437 154.209 110.074C153.943 109.701 153.745 109.258 153.617 108.746C153.5 108.223 153.441 107.647 153.441 107.018C153.441 105.663 153.74 104.629 154.337 103.914C154.935 103.189 155.793 102.826 156.913 102.826C157.425 102.826 157.857 102.869 158.209 102.954C158.572 103.029 158.897 103.141 159.185 103.29L158.817 104.394C158.572 104.255 158.3 104.149 158.001 104.074C157.703 103.989 157.383 103.946 157.041 103.946C155.527 103.946 154.769 104.97 154.769 107.018C154.769 107.423 154.807 107.813 154.881 108.186C154.967 108.549 155.1 108.874 155.281 109.162C155.473 109.439 155.719 109.663 156.017 109.834C156.327 110.005 156.705 110.09 157.153 110.09C157.537 110.09 157.879 110.031 158.177 109.914C158.487 109.797 158.737 109.663 158.929 109.514L159.345 110.49Z" fill="#252422"/>
<path d="M166.574 110.378C166.254 110.634 165.849 110.837 165.358 110.986C164.878 111.135 164.366 111.21 163.822 111.21C163.214 111.21 162.686 111.114 162.238 110.922C161.79 110.719 161.422 110.437 161.134 110.074C160.846 109.701 160.633 109.258 160.494 108.746C160.355 108.234 160.286 107.658 160.286 107.018C160.286 105.653 160.59 104.613 161.198 103.898C161.806 103.183 162.675 102.826 163.806 102.826C164.169 102.826 164.531 102.869 164.894 102.954C165.257 103.029 165.582 103.178 165.87 103.402C166.158 103.626 166.393 103.946 166.574 104.362C166.755 104.767 166.846 105.306 166.846 105.978C166.846 106.33 166.814 106.719 166.75 107.146H161.614C161.614 107.615 161.662 108.031 161.758 108.394C161.854 108.757 162.003 109.066 162.206 109.322C162.409 109.567 162.67 109.759 162.99 109.898C163.321 110.026 163.721 110.09 164.19 110.09C164.553 110.09 164.915 110.026 165.278 109.898C165.641 109.77 165.913 109.621 166.094 109.45L166.574 110.378ZM163.822 103.946C163.193 103.946 162.686 104.111 162.302 104.442C161.929 104.773 161.705 105.338 161.63 106.138H165.598C165.598 105.327 165.443 104.762 165.134 104.442C164.825 104.111 164.387 103.946 163.822 103.946Z" fill="#252422"/>
</svg>
