<svg width="210" height="109" viewBox="0 0 210 109" fill="none" xmlns="http://www.w3.org/2000/svg">
<path fill-rule="evenodd" clip-rule="evenodd" d="M19.9654 105.499L19.9504 105.495C12.4034 103.24 6.21041 100.316 1.45041 96.67L0.191406 95.706L9.77841 74.441L11.7694 75.901C15.8904 78.923 20.8274 81.378 26.6084 83.243C32.3724 85.102 38.1174 86.026 43.8504 86.026C50.3424 86.026 54.7864 85.074 57.4834 83.447C60.1634 81.736 61.2904 79.688 61.2904 77.226C61.2904 75.451 60.6204 74.051 59.1614 72.884L59.1184 72.849L59.0774 72.813C57.5114 71.411 55.3784 70.235 52.5974 69.338L52.5884 69.335L52.5794 69.332C49.7864 68.4 45.9204 67.361 40.9544 66.215L40.9424 66.212C33.2184 64.377 26.8434 62.532 21.8424 60.668C16.6284 58.726 12.1314 55.604 8.36841 51.332L8.35941 51.322L8.35041 51.312C4.50841 46.83 2.68541 40.95 2.68541 33.882C2.68541 27.645 4.37841 21.976 7.77341 16.933C11.1934 11.755 16.2764 7.74097 22.8894 4.83497L22.8994 4.83097C29.6474 1.90997 37.7584 0.490967 47.1654 0.490967C53.7584 0.490967 60.2094 1.27797 66.5144 2.85497C72.8284 4.43397 78.4054 6.71597 83.2174 9.72297L84.6434 10.614L75.9524 31.994L73.9714 30.871C64.9144 25.736 55.9394 23.211 47.0214 23.211C40.6474 23.211 36.2794 24.254 33.5984 26.035C31.0274 27.807 29.8694 29.996 29.8694 32.731C29.8694 34.098 30.2144 35.207 30.8514 36.137C31.4954 37.076 32.5164 37.948 34.0444 38.695C37.5044 40.238 42.8554 41.831 50.1894 43.45L50.2044 43.453L50.2194 43.457C57.9434 45.291 64.3184 47.137 69.3194 49.001C74.5224 50.939 78.9714 54.007 82.6434 58.185C86.6024 62.578 88.4774 68.427 88.4774 75.499C88.4774 81.661 86.7244 87.331 83.2384 92.459C79.8114 97.546 74.6744 101.507 67.9754 104.407C61.2274 107.328 53.1164 108.747 43.7094 108.747C35.5624 108.747 27.6514 107.667 19.9824 105.504L19.9654 105.499ZM81.5794 91.338C84.8434 86.538 86.4754 81.258 86.4754 75.498C86.4754 68.778 84.6994 63.45 81.1474 59.514C77.6914 55.578 73.5154 52.698 68.6194 50.874C63.7234 49.05 57.4354 47.226 49.7554 45.402C42.3634 43.77 36.8434 42.138 33.1954 40.506C29.6434 38.778 27.8674 36.186 27.8674 32.73C27.8674 29.274 29.4034 26.49 32.4754 24.378C35.6434 22.266 40.4914 21.21 47.0194 21.21C55.7434 21.21 64.4664 23.527 73.1904 28.161C73.7784 28.474 74.3674 28.797 74.9554 29.13L82.1554 11.418C77.5474 8.53797 72.1714 6.32997 66.0274 4.79397C59.8834 3.25797 53.5954 2.48997 47.1634 2.48997C37.9474 2.48997 30.1234 3.88197 23.6914 6.66597C17.3554 9.44997 12.6034 13.242 9.43541 18.042C6.26741 22.746 4.68341 28.026 4.68341 33.882C4.68341 40.602 6.41141 45.978 9.86741 50.01C13.4194 54.042 17.6434 56.97 22.5394 58.794C27.4354 60.618 33.7234 62.442 41.4034 64.266C46.3954 65.418 50.3314 66.474 53.2114 67.434C56.1874 68.394 58.5874 69.69 60.4114 71.322C62.3314 72.858 63.2914 74.826 63.2914 77.226C63.2914 80.49 61.7074 83.13 58.5394 85.146C55.3714 87.066 50.4754 88.026 43.8514 88.026C37.8994 88.026 31.9474 87.066 25.9954 85.146C20.7914 83.468 16.2124 81.312 12.2554 78.68C11.6864 78.301 11.1304 77.913 10.5874 77.514L2.66741 95.082C7.17941 98.538 13.1314 101.37 20.5234 103.578C28.0114 105.69 35.7394 106.746 43.7074 106.746C52.9234 106.746 60.7474 105.354 67.1794 102.57C73.6114 99.786 78.4114 96.042 81.5794 91.338Z" fill="#252422"/>
<path d="M96.2933 101.782C96.2933 101.334 96.1603 100.971 95.8933 100.694C95.6263 100.406 95.2903 100.155 94.8853 99.9419C94.4903 99.7179 94.0583 99.5099 93.5893 99.3179C93.1203 99.1259 92.6823 98.8959 92.2773 98.6299C91.8823 98.3519 91.5523 98.0159 91.2853 97.6219C91.0183 97.2159 90.8853 96.7039 90.8853 96.0859C90.8853 95.2109 91.1893 94.5179 91.7973 94.0059C92.4053 93.4939 93.2693 93.2379 94.3893 93.2379C95.0403 93.2379 95.6323 93.2859 96.1653 93.3819C96.6983 93.4779 97.1143 93.5999 97.4133 93.7499L97.0133 94.9179C96.7683 94.7999 96.4053 94.6879 95.9253 94.5819C95.4563 94.4749 94.9223 94.4219 94.3253 94.4219C93.6213 94.4219 93.0933 94.5819 92.7413 94.9019C92.3893 95.2109 92.2133 95.5789 92.2133 96.0059C92.2133 96.4219 92.3463 96.7679 92.6133 97.0459C92.8803 97.3229 93.2103 97.5739 93.6053 97.7979C94.0103 98.0109 94.4483 98.2239 94.9173 98.4379C95.3863 98.6509 95.8183 98.9019 96.2133 99.1899C96.6183 99.4669 96.9543 99.8029 97.2213 100.198C97.4883 100.592 97.6213 101.083 97.6213 101.67C97.6213 102.15 97.5363 102.582 97.3653 102.966C97.1943 103.35 96.9443 103.68 96.6133 103.958C96.2823 104.235 95.8823 104.448 95.4133 104.598C94.9443 104.747 94.4103 104.822 93.8133 104.822C93.0133 104.822 92.3523 104.758 91.8293 104.63C91.3063 104.512 90.9013 104.379 90.6133 104.23L91.0613 103.03C91.3063 103.168 91.6693 103.307 92.1493 103.446C92.6293 103.574 93.1683 103.638 93.7653 103.638C94.1173 103.638 94.4483 103.606 94.7573 103.542C95.0663 103.467 95.3333 103.355 95.5573 103.206C95.7813 103.046 95.9573 102.848 96.0853 102.614C96.2243 102.379 96.2933 102.102 96.2933 101.782Z" fill="#252422"/>
<path d="M100.762 96.6299V101.19C100.762 101.606 100.784 101.974 100.826 102.294C100.88 102.603 100.965 102.864 101.082 103.078C101.2 103.28 101.36 103.435 101.562 103.542C101.765 103.648 102.021 103.702 102.33 103.702C102.618 103.702 102.874 103.659 103.098 103.574C103.322 103.478 103.52 103.35 103.69 103.19C103.872 103.03 104.026 102.848 104.154 102.646C104.293 102.432 104.405 102.208 104.49 101.974V96.6299H105.77V102.358C105.77 102.742 105.781 103.142 105.802 103.558C105.834 103.963 105.882 104.32 105.946 104.63H105.066L104.746 103.366H104.666C104.421 103.782 104.09 104.128 103.674 104.406C103.258 104.683 102.73 104.822 102.09 104.822C101.664 104.822 101.285 104.768 100.954 104.662C100.634 104.566 100.362 104.39 100.138 104.134C99.9254 103.878 99.7604 103.536 99.6424 103.11C99.5354 102.672 99.4824 102.123 99.4824 101.462V96.6299H100.762Z" fill="#252422"/>
<path d="M108.234 96.63H109.114L109.354 97.59H109.418C109.664 97.216 109.978 96.934 110.362 96.742C110.757 96.539 111.205 96.438 111.706 96.438C112.773 96.438 113.568 96.752 114.09 97.382C114.613 98.011 114.874 99.04 114.874 100.47C114.874 101.142 114.784 101.75 114.602 102.294C114.432 102.827 114.186 103.28 113.866 103.654C113.546 104.027 113.157 104.315 112.698 104.518C112.25 104.72 111.749 104.822 111.194 104.822C110.8 104.822 110.485 104.795 110.25 104.742C110.026 104.699 109.781 104.619 109.514 104.502V107.83H108.234V96.63ZM111.466 97.558C110.922 97.558 110.49 97.702 110.17 97.99C109.861 98.267 109.642 98.694 109.514 99.27V103.238C109.706 103.387 109.925 103.504 110.17 103.59C110.416 103.664 110.741 103.702 111.146 103.702C111.882 103.702 112.464 103.43 112.89 102.886C113.328 102.331 113.546 101.52 113.546 100.454C113.546 100.016 113.509 99.622 113.434 99.27C113.36 98.907 113.237 98.603 113.066 98.358C112.906 98.102 112.693 97.904 112.426 97.766C112.17 97.627 111.85 97.558 111.466 97.558Z" fill="#252422"/>
<path d="M116.893 96.63H117.773L118.013 97.59H118.077C118.322 97.216 118.637 96.934 119.021 96.742C119.415 96.539 119.863 96.438 120.365 96.438C121.431 96.438 122.226 96.752 122.749 97.382C123.271 98.011 123.533 99.04 123.533 100.47C123.533 101.142 123.442 101.75 123.261 102.294C123.09 102.827 122.845 103.28 122.525 103.654C122.205 104.027 121.815 104.315 121.357 104.518C120.909 104.72 120.407 104.822 119.853 104.822C119.458 104.822 119.143 104.795 118.909 104.742C118.685 104.699 118.439 104.619 118.173 104.502V107.83H116.893V96.63ZM120.125 97.558C119.581 97.558 119.149 97.702 118.829 97.99C118.519 98.267 118.301 98.694 118.173 99.27V103.238C118.365 103.387 118.583 103.504 118.829 103.59C119.074 103.664 119.399 103.702 119.805 103.702C120.541 103.702 121.122 103.43 121.549 102.886C121.986 102.331 122.205 101.52 122.205 100.454C122.205 100.016 122.167 99.622 122.093 99.27C122.018 98.907 121.895 98.603 121.725 98.358C121.565 98.102 121.351 97.904 121.085 97.766C120.829 97.627 120.509 97.558 120.125 97.558Z" fill="#252422"/>
<path d="M125.1 100.63C125.1 99.275 125.398 98.24 125.996 97.526C126.604 96.8 127.473 96.438 128.604 96.438C129.201 96.438 129.718 96.539 130.156 96.742C130.604 96.934 130.972 97.216 131.26 97.59C131.548 97.952 131.761 98.395 131.9 98.918C132.038 99.43 132.108 100 132.108 100.63C132.108 101.984 131.804 103.024 131.196 103.75C130.598 104.464 129.734 104.822 128.604 104.822C128.006 104.822 127.484 104.726 127.036 104.534C126.598 104.331 126.236 104.048 125.948 103.686C125.66 103.312 125.446 102.87 125.308 102.358C125.169 101.835 125.1 101.259 125.1 100.63ZM126.428 100.63C126.428 101.035 126.465 101.424 126.54 101.798C126.625 102.171 126.753 102.496 126.924 102.774C127.094 103.051 127.318 103.275 127.596 103.446C127.873 103.616 128.209 103.702 128.604 103.702C130.054 103.712 130.78 102.688 130.78 100.63C130.78 100.214 130.737 99.819 130.652 99.446C130.577 99.072 130.454 98.747 130.284 98.47C130.113 98.192 129.889 97.974 129.612 97.814C129.334 97.643 128.998 97.558 128.604 97.558C127.153 97.547 126.428 98.571 126.428 100.63Z" fill="#252422"/>
<path d="M137.902 97.862C137.582 97.755 137.278 97.702 136.99 97.702C136.531 97.702 136.169 97.83 135.902 98.086C135.635 98.331 135.47 98.646 135.406 99.03V104.63H134.126V96.63H135.022L135.262 97.606H135.326C135.529 97.243 135.769 96.966 136.046 96.774C136.334 96.571 136.697 96.47 137.134 96.47C137.443 96.47 137.79 96.523 138.174 96.63L137.902 97.862Z" fill="#252422"/>
<path d="M138.992 96.63H140.24V95.046L141.52 94.678V96.63H143.696V97.75H141.52V102.182C141.52 102.736 141.589 103.131 141.728 103.366C141.866 103.59 142.101 103.702 142.432 103.702C142.709 103.702 142.944 103.675 143.136 103.622C143.328 103.558 143.541 103.478 143.776 103.382L144.064 104.358C143.776 104.496 143.461 104.608 143.12 104.694C142.778 104.779 142.41 104.822 142.016 104.822C141.365 104.822 140.906 104.64 140.64 104.278C140.373 103.904 140.24 103.286 140.24 102.422V97.75H138.992V96.63Z" fill="#252422"/>
<path d="M196.997 39.903C193.291 39.903 189.755 38.305 187.129 35.481C184.504 38.306 180.968 39.903 177.261 39.903C173.555 39.903 170.019 38.305 167.394 35.481C164.768 38.305 161.232 39.903 157.526 39.903C153.819 39.903 150.283 38.305 147.658 35.481C145.032 38.305 141.496 39.903 137.79 39.903C134.084 39.903 130.548 38.305 127.922 35.481C125.297 38.306 121.761 39.903 118.054 39.903C112.059 39.903 107.637 36.625 105.602 30.673C105.303 29.796 105.364 28.856 105.775 28.025C106.188 27.189 106.906 26.564 107.794 26.265C109.614 25.656 111.603 26.628 112.223 28.439C113.276 31.522 115.128 32.958 118.055 32.958C120.89 32.958 123.509 30.871 124.571 27.764C125.053 26.353 126.382 25.408 127.881 25.408C127.887 25.408 127.896 25.408 127.903 25.408C129.465 25.408 130.796 26.354 131.277 27.763C132.338 30.87 134.956 32.957 137.792 32.957C140.627 32.957 143.245 30.87 144.307 27.763C144.789 26.352 146.117 25.408 147.615 25.408C147.622 25.408 147.628 25.408 147.634 25.408H147.736C147.738 25.408 147.741 25.408 147.744 25.408C149.204 25.408 150.533 26.353 151.015 27.762C152.077 30.869 154.694 32.957 157.53 32.957C160.365 32.957 162.982 30.87 164.044 27.763C164.526 26.352 165.856 25.407 167.355 25.407C167.362 25.407 167.371 25.408 167.378 25.407C168.941 25.407 170.27 26.353 170.75 27.763C171.812 30.869 174.43 32.956 177.265 32.956C180.1 32.956 182.719 30.869 183.781 27.762C184.263 26.351 185.592 25.407 187.092 25.407C187.097 25.407 187.103 25.407 187.109 25.407H187.21C187.212 25.407 187.215 25.407 187.218 25.407C188.68 25.407 190.009 26.353 190.489 27.763C191.551 30.868 194.169 32.956 197.004 32.956C199.931 32.956 201.784 31.52 202.837 28.438C203.455 26.626 205.443 25.65 207.266 26.264C208.155 26.562 208.871 27.187 209.285 28.024C209.695 28.855 209.757 29.795 209.457 30.671C207.415 36.624 202.993 39.903 196.997 39.903ZM187.129 32.331L187.913 33.324C190.212 36.234 193.523 37.902 196.997 37.902C202.071 37.902 205.821 35.104 207.556 30.024C207.682 29.655 207.657 29.259 207.484 28.91C207.308 28.554 207.002 28.287 206.622 28.16C205.837 27.896 204.986 28.31 204.723 29.084C203.392 32.98 200.792 34.956 196.997 34.956C193.307 34.956 189.929 32.325 188.59 28.409C188.386 27.809 187.817 27.407 187.173 27.407C187.169 27.408 187.165 27.407 187.162 27.407C186.443 27.407 185.874 27.809 185.669 28.409C184.33 32.326 180.951 34.957 177.261 34.957C173.571 34.957 170.193 32.326 168.854 28.409C168.65 27.809 168.082 27.408 167.439 27.408C167.436 27.408 167.43 27.408 167.426 27.408C166.706 27.408 166.138 27.81 165.933 28.41C164.595 32.326 161.217 34.957 157.527 34.957C153.836 34.957 150.458 32.326 149.12 28.41C148.915 27.811 148.345 27.408 147.702 27.408C147.697 27.408 147.694 27.408 147.69 27.408C146.971 27.408 146.403 27.81 146.198 28.41C144.859 32.327 141.481 34.958 137.791 34.958C134.1 34.958 130.721 32.327 129.384 28.41C129.179 27.811 128.61 27.409 127.967 27.409C127.963 27.409 127.958 27.409 127.954 27.409C127.236 27.409 126.668 27.811 126.463 28.411C125.124 32.327 121.745 34.958 118.055 34.958C114.259 34.958 111.66 32.982 110.33 29.086C110.065 28.314 109.214 27.9 108.431 28.161C108.051 28.289 107.744 28.555 107.569 28.911C107.396 29.261 107.37 29.657 107.496 30.026C109.232 35.105 112.982 37.902 118.056 37.902C121.531 37.902 124.841 36.234 127.139 33.324L127.924 32.33L128.708 33.323C131.007 36.233 134.318 37.901 137.792 37.901C141.266 37.901 144.577 36.233 146.876 33.323L147.66 32.33L148.445 33.324C150.743 36.233 154.053 37.902 157.528 37.902C161.002 37.902 164.313 36.234 166.612 33.324L167.396 32.331L168.181 33.325C170.479 36.234 173.788 37.903 177.263 37.903C180.738 37.903 184.048 36.235 186.346 33.325L187.129 32.331Z" fill="#252422"/>
<path d="M108.273 61.7669C102.277 61.7669 97.8548 58.4889 95.8208 52.5359C95.5218 51.6599 95.5828 50.7199 95.9928 49.8889C96.4068 49.0519 97.1228 48.4269 98.0118 48.1289C99.8338 47.5189 101.822 48.4919 102.441 50.3029C103.494 53.3859 105.347 54.8209 108.274 54.8209C111.109 54.8209 113.727 52.7339 114.789 49.6269C115.269 48.2159 116.598 47.2719 118.097 47.2719C118.107 47.2719 118.117 47.2719 118.122 47.2719C119.685 47.2719 121.014 48.2179 121.495 49.6269C122.557 52.7339 125.174 54.8209 128.01 54.8209C130.845 54.8209 133.464 52.7339 134.526 49.6269C135.006 48.2159 136.335 47.2709 137.834 47.2709C137.843 47.2709 137.85 47.2709 137.858 47.2709C139.421 47.2709 140.751 48.2169 141.232 49.6259C142.293 52.7319 144.911 54.8199 147.747 54.8199C150.582 54.8199 153.2 52.7329 154.262 49.6259C154.744 48.2149 156.072 47.2709 157.57 47.2709C157.577 47.2709 157.583 47.2709 157.589 47.2709H157.691C157.693 47.2709 157.696 47.2709 157.699 47.2709C159.16 47.2709 160.488 48.2169 160.97 49.6259C162.032 52.7319 164.649 54.8199 167.485 54.8199C170.321 54.8199 172.939 52.7329 174 49.6259C174.482 48.2149 175.812 47.2699 177.311 47.2699C177.318 47.2699 177.326 47.2709 177.333 47.2699C178.895 47.2699 180.225 48.2159 180.706 49.6249C181.768 52.7319 184.386 54.8189 187.221 54.8189C190.148 54.8189 192.001 53.3829 193.054 50.3009C193.674 48.4889 195.662 47.5129 197.483 48.1269C198.371 48.4249 199.088 49.0499 199.502 49.8859C199.912 50.7169 199.974 51.6569 199.675 52.5329C197.641 58.4869 193.219 61.7649 187.223 61.7649C183.517 61.7649 179.981 60.1669 177.356 57.3419C174.73 60.1669 171.194 61.7649 167.488 61.7649C163.781 61.7649 160.245 60.1669 157.62 57.3419C154.995 60.1669 151.459 61.7649 147.752 61.7649C144.047 61.7649 140.511 60.1669 137.884 57.3419C135.259 60.1669 131.723 61.7649 128.016 61.7649C124.311 61.7649 120.775 60.1669 118.149 57.3419C115.517 60.1679 111.98 61.7659 108.273 61.7669ZM99.1308 49.9459C98.9708 49.9459 98.8088 49.9709 98.6488 50.0249C98.2688 50.1519 97.9618 50.4189 97.7858 50.7749C97.6128 51.1249 97.5868 51.5209 97.7128 51.8899C99.4488 56.9699 103.199 59.7679 108.273 59.7679C111.748 59.7669 115.059 58.0979 117.358 55.1889L118.142 54.1959L118.926 55.1889C121.225 58.0979 124.535 59.7669 128.009 59.7669C131.484 59.7669 134.794 58.0979 137.092 55.1889L137.877 54.1959L138.661 55.1889C140.961 58.0979 144.272 59.7669 147.745 59.7669C151.22 59.7669 154.53 58.0979 156.828 55.1889L157.613 54.1959L158.398 55.1889C160.696 58.0979 164.006 59.7669 167.481 59.7669C170.955 59.7669 174.266 58.0979 176.565 55.1889L177.349 54.1959L178.134 55.1889C180.432 58.0979 183.741 59.7669 187.216 59.7669C192.29 59.7669 196.04 56.9689 197.776 51.8889C197.902 51.5199 197.876 51.1239 197.703 50.7739C197.527 50.4179 197.221 50.1519 196.841 50.0239C196.063 49.7599 195.206 50.1749 194.942 50.9489C193.611 54.8449 191.011 56.8199 187.216 56.8199C183.526 56.8199 180.148 54.1889 178.809 50.2719C178.604 49.6729 178.036 49.2709 177.393 49.2709C177.389 49.2709 177.384 49.2709 177.38 49.2709C176.661 49.2709 176.093 49.6729 175.888 50.2729C174.551 54.1889 171.172 56.8199 167.481 56.8199C163.79 56.8199 160.412 54.1889 159.074 50.2729C158.869 49.6729 158.3 49.2709 157.657 49.2709C157.653 49.2709 157.649 49.2709 157.645 49.2709C156.926 49.2709 156.358 49.6729 156.153 50.2729C154.814 54.1889 151.436 56.8199 147.746 56.8199C144.055 56.8199 140.676 54.1889 139.339 50.2729C139.134 49.6739 138.565 49.2719 137.921 49.2719C137.915 49.2709 137.912 49.2719 137.907 49.2719C137.19 49.2719 136.623 49.6729 136.418 50.2729C135.079 54.1899 131.7 56.8209 128.01 56.8209C124.319 56.8209 120.941 54.1899 119.603 50.2729C119.398 49.6729 118.829 49.2709 118.186 49.2709C118.181 49.2709 118.178 49.2709 118.174 49.2709C117.454 49.2709 116.887 49.6719 116.682 50.2719C115.343 54.1889 111.965 56.8199 108.275 56.8199C104.48 56.8199 101.88 54.8439 100.549 50.9479C100.338 50.3339 99.7548 49.9459 99.1308 49.9459Z" fill="#252422"/>
<path d="M196.997 83.63C193.291 83.63 189.755 82.032 187.129 79.207C184.504 82.032 180.968 83.63 177.261 83.63C173.555 83.63 170.019 82.032 167.394 79.207C164.768 82.032 161.232 83.63 157.526 83.63C153.819 83.63 150.283 82.032 147.658 79.207C145.032 82.032 141.496 83.63 137.79 83.63C134.084 83.63 130.548 82.032 127.922 79.207C125.296 82.032 121.76 83.63 118.054 83.63C112.058 83.63 107.636 80.352 105.602 74.399C105.303 73.522 105.364 72.582 105.775 71.751C106.189 70.915 106.906 70.29 107.794 69.992C109.614 69.381 111.603 70.355 112.223 72.167C113.276 75.249 115.128 76.685 118.055 76.685C120.89 76.685 123.509 74.598 124.571 71.492C125.047 70.096 126.353 69.155 127.835 69.136L128.033 69.139C128.037 69.139 128.041 69.139 128.045 69.139C129.47 69.139 130.797 70.084 131.277 71.493C132.339 74.599 134.957 76.686 137.792 76.686C140.627 76.686 143.245 74.599 144.307 71.493C144.784 70.097 146.09 69.156 147.571 69.137L147.775 69.14C147.779 69.14 147.783 69.14 147.788 69.14C149.206 69.14 150.533 70.085 151.015 71.494C152.077 74.6 154.695 76.687 157.53 76.687C160.365 76.687 162.983 74.6 164.045 71.494C164.522 70.096 165.83 69.154 167.314 69.138L167.507 69.141C167.511 69.141 167.515 69.141 167.519 69.141C168.944 69.141 170.271 70.086 170.751 71.495C171.813 74.601 174.43 76.688 177.266 76.688C180.102 76.688 182.719 74.601 183.781 71.495C184.259 70.097 185.568 69.155 187.051 69.139L187.243 69.142C187.247 69.142 187.251 69.142 187.255 69.142C188.68 69.142 190.007 70.087 190.487 71.496C191.549 74.602 194.167 76.689 197.002 76.689C199.929 76.689 201.782 75.253 202.835 72.171C203.453 70.359 205.437 69.385 207.264 69.996C208.152 70.294 208.868 70.919 209.283 71.755C209.693 72.586 209.755 73.526 209.456 74.403C207.415 80.351 202.993 83.63 196.997 83.63ZM187.129 76.058L187.913 77.051C190.212 79.96 193.523 81.629 196.997 81.629C202.071 81.629 205.821 78.831 207.557 73.751C207.683 73.382 207.657 72.986 207.484 72.636C207.308 72.281 207.002 72.014 206.622 71.887C205.837 71.624 204.986 72.037 204.723 72.812C203.392 76.708 200.792 78.683 196.997 78.683C193.308 78.683 189.929 76.052 188.59 72.136C188.385 71.535 187.816 71.133 187.172 71.133C187.169 71.134 187.164 71.133 187.161 71.133C186.442 71.133 185.874 71.535 185.669 72.136C184.331 76.052 180.953 78.683 177.262 78.683C173.571 78.683 170.193 76.052 168.855 72.136C168.65 71.535 168.081 71.133 167.437 71.133C167.433 71.134 167.428 71.133 167.426 71.133C166.707 71.133 166.139 71.535 165.934 72.135C164.595 76.052 161.217 78.683 157.527 78.683C153.837 78.683 150.459 76.052 149.12 72.136C148.915 71.536 148.345 71.133 147.701 71.133C147.697 71.134 147.693 71.133 147.69 71.133C146.971 71.133 146.403 71.535 146.198 72.136C144.859 76.052 141.481 78.683 137.791 78.683C134.101 78.683 130.723 76.052 129.384 72.136C129.179 71.535 128.61 71.133 127.966 71.133C127.963 71.134 127.958 71.133 127.955 71.133C127.236 71.133 126.668 71.535 126.463 72.135C125.124 76.052 121.745 78.683 118.055 78.683C114.259 78.683 111.66 76.707 110.33 72.812C110.066 72.04 109.214 71.624 108.431 71.887C108.051 72.014 107.744 72.281 107.569 72.636C107.396 72.987 107.37 73.382 107.496 73.751C109.231 78.831 112.981 81.629 118.056 81.629C121.53 81.629 124.841 79.96 127.14 77.051L127.924 76.058L128.708 77.051C131.007 79.96 134.318 81.629 137.792 81.629C141.266 81.629 144.577 79.96 146.876 77.051L147.66 76.058L148.445 77.051C150.743 79.96 154.053 81.629 157.528 81.629C161.002 81.629 164.313 79.96 166.612 77.051L167.396 76.058L168.181 77.051C170.479 79.96 173.788 81.629 177.263 81.629C180.738 81.629 184.048 79.96 186.346 77.051L187.129 76.058Z" fill="#252422"/>
</svg>
