<svg width="20" height="20" viewBox="0 0 20 20" fill="none" xmlns="http://www.w3.org/2000/svg">
<path d="M11.7852 9.94371L19.8455 17.7659C19.9412 17.8588 19.9412 18.0107 19.8455 18.1036L18.4538 19.4542C18.3581 19.547 18.2015 19.547 18.1058 19.4542L10.0455 11.632L2.68103 18.7789C2.58535 18.8717 2.42878 18.8717 2.3331 18.7789L0.941389 17.4283C0.845709 17.3354 0.845709 17.1835 0.941389 17.0906L8.30587 9.94371L1.05736 2.90936C0.961685 2.81651 0.961685 2.66457 1.05737 2.57171L2.44908 1.22112C2.54476 1.12827 2.70133 1.12826 2.79701 1.22112L10.0455 8.25547L17.9899 0.545821C18.0856 0.452968 18.2421 0.452968 18.3378 0.545821L19.7295 1.89642C19.8252 1.98927 19.8252 2.14121 19.7295 2.23406L11.7852 9.94371Z" fill="#252422"/>
</svg>
