<svg width="23" height="23" viewBox="0 0 23 23" fill="none" xmlns="http://www.w3.org/2000/svg">
<path d="M11.4266 0.477051C10.7484 0.477051 10.7484 1.53393 11.4266 1.54274C16.6881 1.58325 21.0213 5.25063 21.0689 11.9777C21.0689 12.6875 22.1081 12.6787 22.0993 11.9689H22.0976C22.0412 4.72043 17.3099 0.517565 11.4266 0.477051Z" fill="white"/>
<path d="M18.3472 10.8627C18.3313 11.5638 19.3688 11.5972 19.3776 10.8874C19.4639 6.89061 16.9996 3.59843 12.3687 3.25142C11.6906 3.20209 11.6201 4.26778 12.2965 4.3171C16.3127 4.62184 18.4282 7.36268 18.3472 10.8627Z" fill="white"/>
<path d="M17.2382 15.409C16.368 14.9053 15.482 15.2188 15.1156 15.7138L14.3493 16.7055C13.9601 17.2093 13.2326 17.1423 13.2326 17.1423C7.92352 15.7384 6.50377 10.1828 6.50377 10.1828C6.50377 10.1828 6.4386 9.43061 6.92477 9.02724L7.883 8.23458C8.36212 7.8541 8.66509 6.93814 8.17717 6.03803C6.87368 3.68294 5.99823 2.87091 5.55258 2.24735C5.08403 1.66078 4.37944 1.52867 3.64667 1.925H3.63082C2.10715 2.8163 0.439044 4.48441 0.972768 6.20184C1.88345 8.01263 3.55684 13.785 8.89056 18.1464C11.3971 20.209 15.364 22.3228 17.0479 22.8107L17.0638 22.8354C18.7231 23.3885 20.3366 21.6552 21.1979 20.0857V20.0734C21.5802 19.3142 21.4533 18.5955 20.895 18.1252C19.905 17.1599 18.4113 16.0942 17.2382 15.409Z" fill="white"/>
<path d="M13.0944 7.18303C14.7872 7.28167 15.608 8.16593 15.6961 9.982C15.7278 10.6919 16.7583 10.6426 16.7266 9.93268C16.6138 7.56174 15.3773 6.24064 13.1508 6.11734C12.4726 6.07682 12.4092 7.14251 13.0944 7.18303Z" fill="white"/>
</svg>
