<svg width="28" height="28" viewBox="0 0 28 28" fill="none" xmlns="http://www.w3.org/2000/svg">
<path fill-rule="evenodd" clip-rule="evenodd" d="M14.1515 0.428955H14.1582C21.546 0.428955 27.5537 6.44006 27.5537 13.8279C27.5537 21.2157 21.546 27.2268 14.1582 27.2268C11.4331 27.2268 8.90577 26.4162 6.78706 25.0127L1.63684 26.6591L3.30668 21.6814C1.70048 19.4756 0.755859 16.7589 0.755859 13.8279C0.755859 6.43838 6.76361 0.428955 14.1515 0.428955ZM19.3252 21.2409C20.3486 21.0199 21.6315 20.2628 21.9548 19.35C22.278 18.4355 22.278 17.6567 22.1842 17.4909C22.1085 17.3594 21.9294 17.2731 21.6621 17.1444C21.5924 17.1109 21.5169 17.0745 21.4356 17.0337C21.042 16.8377 19.1276 15.8914 18.7658 15.7658C18.4107 15.6318 18.0724 15.6787 17.8044 16.0572C17.7535 16.1286 17.7026 16.2001 17.652 16.2712C17.3287 16.7259 17.0169 17.1645 16.7576 17.444C16.5215 17.6952 16.1363 17.7271 15.813 17.5931C15.7778 17.5784 15.7374 17.5621 15.6921 17.5438C15.1803 17.3371 14.0451 16.8786 12.671 15.6553C11.512 14.6235 10.7248 13.3389 10.497 12.9537C10.2734 12.5673 10.4663 12.3407 10.6445 12.1312L10.6544 12.1196C10.7694 11.9774 10.8809 11.859 10.993 11.7399C11.0737 11.6543 11.1546 11.5684 11.2373 11.4731C11.2496 11.459 11.2615 11.4452 11.2731 11.4319C11.4487 11.23 11.5533 11.1098 11.6711 10.8584C11.8051 10.5988 11.7096 10.3309 11.6141 10.1332C11.5484 9.99481 11.1427 9.01035 10.7944 8.16523C10.6453 7.80357 10.5068 7.46742 10.4099 7.23402C10.1503 6.61264 9.95266 6.5892 9.55907 6.57245C9.54701 6.57184 9.53483 6.57123 9.52253 6.5706C9.39812 6.56431 9.2611 6.55737 9.1102 6.55737C8.59769 6.55737 8.06341 6.70811 7.74016 7.03806C7.72886 7.0496 7.71709 7.06157 7.70487 7.074C7.29133 7.49458 6.37012 8.43146 6.37012 10.299C6.37012 12.1702 7.6978 13.9811 7.94345 14.3162C7.95022 14.3254 7.95617 14.3335 7.96124 14.3405C7.97602 14.3599 8.00388 14.4002 8.04443 14.459C8.54602 15.1853 10.9891 18.7234 14.6322 20.2327C17.7106 21.5089 18.6251 21.39 19.3252 21.2409Z" fill="white"/>
</svg>
