<svg width="28" height="28" viewBox="0 0 28 28" fill="none" xmlns="http://www.w3.org/2000/svg">
<path fill-rule="evenodd" clip-rule="evenodd" d="M4.41893 21.7417L3.2128 25.3371L6.93945 24.1458L7.33932 24.4107C9.29899 25.7089 11.6351 26.4585 14.1582 26.4585C20.9934 26.4585 26.5537 20.8955 26.5537 14.0596C26.5537 7.22371 20.9934 1.66064 14.1582 1.66064H14.1515C7.31614 1.66064 1.75586 7.22211 1.75586 14.0596C1.75586 16.7725 2.62951 19.2843 4.11507 21.3244L4.41893 21.7417ZM1.63684 26.8908L3.30668 21.913C1.70048 19.7072 0.755859 16.9906 0.755859 14.0596C0.755859 6.67007 6.76361 0.660645 14.1515 0.660645H14.1582C21.546 0.660645 27.5537 6.67175 27.5537 14.0596C27.5537 21.4474 21.546 27.4585 14.1582 27.4585C11.4331 27.4585 8.90577 26.6479 6.78706 25.2444L1.63684 26.8908Z" fill="white"/>
<path d="M21.9538 19.5817C21.6305 20.4945 20.3476 21.2515 19.3242 21.4726C18.6242 21.6217 17.7097 21.7406 14.6313 20.4644C10.6936 18.833 8.1579 14.8318 7.96027 14.5722C7.77101 14.3126 6.36914 12.4535 6.36914 10.5307C6.36914 8.60797 7.34559 7.67172 7.73918 7.26975C8.06243 6.9398 8.59671 6.78906 9.10922 6.78906C9.27504 6.78906 9.4241 6.79744 9.55809 6.80414C9.95168 6.82089 10.1493 6.84433 10.4089 7.46571C10.7322 8.24452 11.5194 10.1673 11.6132 10.3649C11.7086 10.5625 11.8041 10.8305 11.6701 11.0901C11.5445 11.3581 11.4339 11.477 11.2363 11.7048C11.0387 11.9326 10.8511 12.1068 10.6535 12.3513C10.4726 12.564 10.2682 12.7918 10.496 13.1854C10.7238 13.5706 11.511 14.8552 12.67 15.8869C14.1657 17.2185 15.3783 17.6439 15.812 17.8248C16.1353 17.9588 16.5205 17.9269 16.7567 17.6757C17.0565 17.3525 17.4266 16.8165 17.8035 16.2889C18.0714 15.9104 18.4098 15.8635 18.7648 15.9975C19.1266 16.1231 21.041 17.0694 21.4346 17.2654C21.8282 17.463 22.0878 17.5568 22.1832 17.7226C22.277 17.8884 22.277 18.6672 21.9538 19.5817Z" fill="white"/>
</svg>
