<svg width="28" height="28" viewBox="0 0 28 28" fill="none" xmlns="http://www.w3.org/2000/svg">
<g>
  <path d="M21.9206 19.6398C21.5973 20.5526 20.3144 21.3097 19.291 21.5307C18.5909 21.6798 17.6765 21.7987 14.5981 20.5225C10.6604 18.8911 8.1247 14.8899 7.92706 14.6303C7.7378 14.3707 6.33594 12.5116 6.33594 10.5888C6.33594 8.66607 7.31239 7.72982 7.70598 7.32786C8.02923 6.99791 8.56351 6.84717 9.07602 6.84717C9.24183 6.84717 9.3909 6.85554 9.52489 6.86224C9.91848 6.87899 10.1161 6.90244 10.3757 7.52382C10.699 8.30263 11.4862 10.2254 11.5799 10.423C11.6754 10.6206 11.7709 10.8886 11.6369 11.1482C11.5113 11.4162 11.4007 11.5351 11.2031 11.7629C11.0055 11.9907 10.8179 12.1649 10.6202 12.4094C10.4394 12.6221 10.235 12.8499 10.4628 13.2435C10.6906 13.6287 11.4778 14.9133 12.6368 15.9451C14.1324 17.2766 15.3451 17.702 15.7788 17.8829C16.1021 18.0169 16.4873 17.985 16.7235 17.7338C17.0233 17.4106 17.3934 16.8746 17.7703 16.347C18.0382 15.9685 18.3766 15.9216 18.7316 16.0556C19.0934 16.1812 21.0078 17.1275 21.4014 17.3235C21.795 17.5211 22.0546 17.6149 22.15 17.7807C22.2438 17.9465 22.2438 18.7253 21.9206 19.6398Z" fill="none"/>
  <path d="M3.74654 22.1302L3.82863 21.8855L3.6767 21.6768C2.13082 19.5539 1.22168 16.9397 1.22168 14.1177C1.22168 7.0042 7.0057 1.21875 14.1173 1.21875H14.124C21.2355 1.21875 27.0196 7.00583 27.0196 14.1177C27.0196 21.2296 21.2355 27.0166 14.124 27.0166C11.5 27.0166 9.0682 26.2365 7.02901 24.8856L6.82907 24.7532L6.60063 24.8262L2.39064 26.172L3.74654 22.1302Z" stroke="white"/>
</g>
</svg>
