<svg width="59" height="70" viewBox="0 0 59 70" fill="none" xmlns="http://www.w3.org/2000/svg">
<path fill-rule="evenodd" clip-rule="evenodd" d="M55.8063 39.1339H53.9373C52.7053 35.3579 50.2943 32.0049 47.0743 29.4079C47.0743 29.2889 47.0473 29.1559 47.0213 29.0369C46.3453 26.6649 47.1803 24.5049 48.1473 22.9549C48.8233 21.8679 47.9483 20.4769 46.6763 20.6359C43.8273 20.9939 41.8663 22.0409 40.5153 23.2199C39.5873 24.0279 38.9253 25.1149 38.6333 26.3209C36.5923 34.7749 28.9733 41.0689 19.8973 41.0689C15.4843 41.0689 11.4293 39.5849 8.18327 37.0929C7.05727 39.5319 6.44727 42.1949 6.44727 44.9909C6.44727 46.5009 6.63326 47.9719 6.97726 49.3899C6.97726 49.3899 6.97726 49.4169 6.99126 49.4559C7.34826 50.9269 7.89227 52.3449 8.58127 53.6829C9.49527 55.6579 10.8203 57.9629 12.6493 59.8319C15.2853 62.5479 15.7363 65.9139 15.8023 67.3709V67.9939V68.0869C15.8553 68.8019 16.4513 69.3719 17.1803 69.3719H25.5553C26.3103 69.3719 26.9333 68.7619 26.9333 67.9939V65.9269C28.1523 66.0859 29.3973 66.1789 30.6563 66.1789C31.6503 66.1789 32.6173 66.1259 33.5853 66.0199V67.9939C33.5853 68.7489 34.1943 69.3719 34.9633 69.3719H43.3633C44.1193 69.3719 44.7423 68.7619 44.7423 67.9939V65.9269C44.7553 65.2379 44.9933 62.4949 47.5903 60.1499L47.8693 59.9109C47.8823 59.8979 47.8953 59.8879 47.9083 59.8779C47.9223 59.8679 47.9353 59.8579 47.9483 59.8449C50.8373 57.2739 52.9703 54.0669 54.0703 50.4899H55.8323C57.2373 50.4899 58.3763 49.3499 58.3763 47.9459V41.6779C58.3503 40.2739 57.2103 39.1339 55.8063 39.1339ZM42.1053 37.5039C42.1053 38.6569 43.0333 39.5849 44.1863 39.5849C45.3393 39.5849 46.2663 38.6569 46.2663 37.5039C46.2663 36.3519 45.3393 35.4239 44.1863 35.4239C43.0333 35.4239 42.1053 36.3519 42.1053 37.5039Z" fill="url(#paint0_linear)"/>
<path fill-rule="evenodd" clip-rule="evenodd" d="M19.1836 38.615C29.6766 38.615 38.1836 30.108 38.1836 19.615C38.1836 9.12199 29.6766 0.61499 19.1836 0.61499C8.68959 0.61499 0.183594 9.12199 0.183594 19.615C0.183594 30.108 8.68959 38.615 19.1836 38.615ZM17.0926 22.814V21.518H20.2746C22.4406 21.518 24.1306 21.055 25.3426 20.129C26.5696 19.203 27.1836 17.853 27.1836 16.078C27.1836 14.288 26.5696 12.93 25.3426 12.004C24.1306 11.078 22.4406 10.615 20.2746 10.615H13.3876V22.814H11.1836V24.735H13.3876V28.615H17.0926V24.735H22.0016V22.814H17.0926ZM22.6146 14.295C23.1756 14.712 23.4556 15.313 23.4556 16.101C23.4556 16.903 23.1756 17.521 22.6146 17.953C22.0696 18.37 21.2816 18.578 20.2516 18.578H17.0926V13.671H20.2516C21.2816 13.67 22.0696 13.878 22.6146 14.295Z" fill="url(#paint1_linear)"/>
<defs>
<linearGradient id="paint0_linear" x1="6.44727" y1="44.9978" x2="58.3763" y2="44.9978" gradientUnits="userSpaceOnUse">
<stop stop-color="#F6D265"/>
<stop offset="1" stop-color="#FDA084"/>
</linearGradient>
<linearGradient id="paint1_linear" x1="0.183594" y1="19.6149" x2="38.1836" y2="19.6149" gradientUnits="userSpaceOnUse">
<stop stop-color="#F6D265"/>
<stop offset="1" stop-color="#FDA084"/>
</linearGradient>
</defs>
</svg>
