<svg width="112" height="58" viewBox="0 0 112 58" fill="none" xmlns="http://www.w3.org/2000/svg">
<path d="M21.8615 13.2619C25.6745 13.2619 29.2325 11.3629 31.6405 8.25888C34.0495 11.3629 37.6075 13.2619 41.4205 13.2619C45.2335 13.2619 48.7925 11.3629 51.2005 8.25888C53.6095 11.3629 57.1675 13.2619 60.9805 13.2619C64.7935 13.2619 68.3525 11.3629 70.7605 8.25888C73.1695 11.3629 76.7275 13.2619 80.5405 13.2619C84.3535 13.2619 87.9115 11.3629 90.3205 8.25888C92.7285 11.3629 96.2865 13.2619 100.1 13.2619C105.586 13.2619 109.636 10.1969 111.504 4.62988C111.942 3.32488 111.248 1.90788 109.954 1.46588C108.66 1.02288 107.256 1.72388 106.818 3.02888C105.635 6.55588 103.437 8.26988 100.1 8.26988C96.8655 8.26988 93.8945 5.88888 92.7055 2.34588C92.3555 1.30388 91.3915 0.649878 90.3585 0.651878C90.3445 0.651878 90.3305 0.650879 90.3155 0.650879C90.3065 0.650879 90.2975 0.650878 90.2885 0.651878C89.2535 0.646878 88.2845 1.30188 87.9345 2.34588C86.7455 5.88888 83.7735 8.26988 80.5395 8.26988C77.3065 8.26988 74.3345 5.88888 73.1455 2.34588C72.7965 1.30388 71.8315 0.649878 70.7985 0.651878C70.7845 0.651878 70.7705 0.650879 70.7565 0.650879C70.7475 0.650879 70.7385 0.651878 70.7285 0.651878C69.6935 0.646878 68.7245 1.30188 68.3745 2.34588C67.1855 5.88888 64.2145 8.26988 60.9805 8.26988C57.7465 8.26988 54.7755 5.88888 53.5855 2.34588C53.2365 1.30388 52.2715 0.649878 51.2385 0.651878C51.2245 0.651878 51.2105 0.650879 51.1965 0.650879C51.1875 0.650879 51.1785 0.650878 51.1695 0.651878C50.1335 0.646878 49.1655 1.30188 48.8155 2.34588C47.6255 5.88888 44.6545 8.26988 41.4205 8.26988C38.1865 8.26988 35.2155 5.88888 34.0265 2.34588C33.6765 1.30388 32.7125 0.649878 31.6795 0.651878C31.6655 0.651878 31.6515 0.650879 31.6375 0.650879C31.6285 0.650879 31.6195 0.650878 31.6095 0.651878C30.5745 0.646878 29.6055 1.30188 29.2555 2.34588C28.0665 5.88888 25.0945 8.26988 21.8615 8.26988C18.5235 8.26988 16.3265 6.55488 15.1425 3.02888C14.7045 1.72388 13.3005 1.02288 12.0065 1.46588C10.7125 1.90788 10.0195 3.32388 10.4575 4.62988C12.3265 10.1969 16.3755 13.2619 21.8615 13.2619Z" fill="url(#paint0_linear)"/>
<path d="M21.9491 30.3199C24.3581 33.4239 27.9161 35.3229 31.7291 35.3229C35.5431 35.3229 39.1011 33.4239 41.5091 30.3199C43.9181 33.4239 47.4751 35.3229 51.2891 35.3229C55.1021 35.3229 58.6601 33.4239 61.0691 30.3199C63.4771 33.4239 67.0351 35.3229 70.8481 35.3229C74.6621 35.3229 78.2201 33.4239 80.6281 30.3199C83.0371 33.4239 86.5951 35.3229 90.4081 35.3229C95.8931 35.3229 99.9431 32.2569 101.811 26.6909C102.249 25.3859 101.555 23.9689 100.262 23.5269C98.9681 23.0839 97.5641 23.7849 97.1261 25.0899C95.9421 28.6169 93.7451 30.3309 90.4081 30.3309C87.1741 30.3309 84.2021 27.9499 83.0131 24.4069C82.6631 23.3649 81.6991 22.7109 80.6661 22.7129C80.6521 22.7129 80.6381 22.7119 80.6241 22.7119C80.6151 22.7119 80.6061 22.7129 80.5961 22.7129C79.5611 22.7079 78.5931 23.3629 78.2421 24.4069C77.0531 27.9499 74.0821 30.3309 70.8481 30.3309C67.6141 30.3309 64.6421 27.9499 63.4531 24.4069C63.1041 23.3649 62.1391 22.7109 61.1061 22.7129C61.0921 22.7119 61.0781 22.7119 61.0641 22.7119C61.0551 22.7119 61.0461 22.7129 61.0371 22.7129C60.0011 22.7079 59.0331 23.3629 58.6831 24.4069C57.4941 27.9499 54.5221 30.3309 51.2881 30.3309C48.0541 30.3309 45.0831 27.9499 43.8941 24.4069C43.5441 23.3649 42.5801 22.7109 41.5471 22.7129C41.5331 22.7119 41.5191 22.7119 41.5051 22.7119C41.4951 22.7119 41.4861 22.7119 41.4771 22.7129C40.4421 22.7079 39.4731 23.3629 39.1231 24.4069C37.9341 27.9499 34.9621 30.3309 31.7281 30.3309C28.4951 30.3309 25.5231 27.9499 24.3341 24.4069C23.9851 23.3649 23.0201 22.7109 21.9871 22.7129C21.9731 22.7129 21.9591 22.7119 21.9451 22.7119C21.9361 22.7119 21.9261 22.7129 21.9171 22.7129C20.8821 22.7079 19.9141 23.3629 19.5631 24.4069C18.3741 27.9499 15.4031 30.3309 12.1691 30.3309C8.83212 30.3309 6.63412 28.6159 5.45112 25.0899C5.01312 23.7849 3.60912 23.0849 2.31512 23.5269C1.02112 23.9689 0.328119 25.3849 0.766119 26.6909C2.63412 32.2569 6.68412 35.3229 12.1691 35.3229C15.9831 35.3219 19.5411 33.4239 21.9491 30.3199Z" fill="url(#paint1_linear)"/>
<path d="M109.954 45.587C108.66 45.145 107.256 45.845 106.818 47.15C105.635 50.676 103.437 52.391 100.1 52.391C96.8655 52.391 93.8945 50.01 92.7055 46.467C92.3555 45.425 91.3905 44.771 90.3575 44.773C90.3435 44.772 90.3305 44.772 90.3165 44.772C90.3075 44.772 90.2975 44.772 90.2875 44.773C89.2525 44.768 88.2845 45.423 87.9345 46.467C86.7455 50.01 83.7735 52.391 80.5405 52.391C77.3065 52.391 74.3345 50.01 73.1455 46.467C72.7965 45.425 71.8315 44.771 70.7975 44.773C70.7845 44.772 70.7705 44.772 70.7575 44.772C70.7475 44.772 70.7375 44.772 70.7285 44.773C69.6935 44.768 68.7255 45.423 68.3745 46.467C67.1855 50.01 64.2145 52.391 60.9805 52.391C57.7465 52.391 54.7755 50.01 53.5865 46.467C53.2365 45.425 52.2715 44.771 51.2375 44.773C51.2245 44.772 51.2115 44.772 51.1975 44.772C51.1885 44.772 51.1785 44.772 51.1685 44.773C50.1335 44.768 49.1655 45.423 48.8155 46.467C47.6265 50.01 44.6545 52.391 41.4205 52.391C38.1865 52.391 35.2155 50.01 34.0265 46.467C33.6765 45.425 32.7115 44.771 31.6785 44.773C31.6655 44.772 31.6515 44.772 31.6385 44.772C31.6285 44.772 31.6185 44.772 31.6085 44.773C30.5735 44.768 29.6055 45.423 29.2555 46.467C28.0665 50.01 25.0945 52.391 21.8615 52.391C18.5235 52.391 16.3265 50.676 15.1425 47.15C14.7045 45.845 13.3005 45.145 12.0065 45.587C10.7125 46.029 10.0195 47.445 10.4575 48.751C12.3255 54.317 16.3745 57.383 21.8605 57.383C25.6745 57.383 29.2325 55.484 31.6405 52.38C34.0495 55.484 37.6075 57.383 41.4205 57.383C45.2335 57.383 48.7925 55.484 51.2005 52.38C53.6095 55.484 57.1675 57.383 60.9805 57.383C64.7935 57.383 68.3525 55.484 70.7605 52.38C73.1695 55.484 76.7275 57.383 80.5405 57.383C84.3535 57.383 87.9115 55.484 90.3205 52.38C92.7285 55.484 96.2865 57.383 100.101 57.383C105.586 57.383 109.636 54.317 111.504 48.751C111.942 47.446 111.248 46.029 109.954 45.587Z" fill="url(#paint2_linear)"/>
<defs>
<linearGradient id="paint0_linear" x1="10.3269" y1="6.95728" x2="111.635" y2="6.95728" gradientUnits="userSpaceOnUse">
<stop stop-color="#F6D265"/>
<stop offset="1" stop-color="#FDA084"/>
</linearGradient>
<linearGradient id="paint1_linear" x1="0.634619" y1="29.0182" x2="101.943" y2="29.0182" gradientUnits="userSpaceOnUse">
<stop stop-color="#F6D265"/>
<stop offset="1" stop-color="#FDA084"/>
</linearGradient>
<linearGradient id="paint2_linear" x1="10.3269" y1="51.0783" x2="111.635" y2="51.0783" gradientUnits="userSpaceOnUse">
<stop stop-color="#F6D265"/>
<stop offset="1" stop-color="#FDA084"/>
</linearGradient>
</defs>
</svg>
