<svg width="80" height="80" viewBox="0 0 80 80" fill="none" xmlns="http://www.w3.org/2000/svg">
<rect x="16" y="15.746" width="38.0013" height="37.1416" rx="4" fill="url(#paint0_linear)"/>
<path d="M78.828 38.8281H59.9596V36.1619H65.0504C65.6975 36.1619 66.2222 35.6372 66.2222 34.99C66.2222 34.3428 65.6975 33.8181 65.0504 33.8181H59.9596V31.1517H63.4939C64.8107 31.1517 66.0486 30.6391 66.9796 29.708L74.6867 22.0008C75.1889 22.251 75.7456 22.3841 76.3231 22.3841C77.3053 22.3841 78.2286 22.0016 78.9231 21.3072C79.6176 20.6127 80.0001 19.6894 80.0001 18.7072C80.0001 17.7251 79.6176 16.8018 78.9231 16.1072C78.2287 15.4127 77.3053 15.0302 76.3231 15.0302C75.3409 15.0302 74.4177 15.4127 73.7231 16.1071C73.0286 16.8016 72.6461 17.7249 72.6461 18.7071C72.6461 19.2846 72.7792 19.8413 73.0294 20.3435L65.3222 28.0506C64.8339 28.5389 64.1846 28.808 63.4938 28.808H59.9594V26.2224C59.9594 22.8136 57.1862 20.0405 53.7776 20.0405H51.192V9.66633C52.6463 9.17587 53.697 7.79978 53.697 6.18197C53.697 4.15448 52.0474 2.50511 50.0201 2.50511C47.9928 2.50511 46.3432 4.15464 46.3432 6.18197C46.3432 7.79978 47.3939 9.17571 48.8482 9.66633V20.0404H46.182V14.9496C46.182 14.3024 45.6573 13.7777 45.0101 13.7777C44.3629 13.7777 43.8382 14.3024 43.8382 14.9496V20.0404H41.1719V1.17199C41.1719 0.524808 40.6472 0.00012207 40 0.00012207C39.3528 0.00012207 38.8281 0.524808 38.8281 1.17199V20.0404H36.1619V14.9496C36.1619 14.3024 35.6372 13.7777 34.99 13.7777C34.3428 13.7777 33.8181 14.3024 33.8181 14.9496V20.0404H31.1519V16.5062C31.1519 15.1894 30.6391 13.9515 29.708 13.0205L21.9982 5.31073C22.6793 3.93558 22.451 2.22089 21.3074 1.07715C19.8737 -0.356439 17.541 -0.356283 16.1074 1.07715C14.6738 2.51074 14.6738 4.84338 16.1074 6.27713C16.8243 6.99384 17.7658 7.35228 18.7074 7.35228C19.268 7.35228 19.8277 7.22213 20.341 6.96791L28.0508 14.6779C28.5392 15.1662 28.8081 15.8155 28.8081 16.5062V20.0404H26.2225C25.6999 20.0404 25.18 20.106 24.6775 20.2352C24.0508 20.3964 23.6735 21.0354 23.8347 21.6622C23.996 22.2891 24.635 22.6664 25.2618 22.505C25.5735 22.4249 25.8966 22.3841 26.2224 22.3841H53.7776C55.894 22.3841 57.6157 24.106 57.6157 26.2222V53.7776C57.6157 54.103 57.5751 54.426 57.4951 54.7374C57.334 55.3643 57.7115 56.003 58.3382 56.1641C58.436 56.1893 58.5341 56.2013 58.6308 56.2013C59.1529 56.2013 59.629 55.8499 59.7649 55.3208C59.894 54.819 59.9594 54.2996 59.9594 53.7774V51.1918H70.3335C70.8239 52.6462 72.2 53.6968 73.8178 53.6968C75.8453 53.6968 77.4947 52.0474 77.4947 50.0199C77.4947 47.9924 75.8452 46.3431 73.8178 46.3431C72.2 46.3431 70.8241 47.3937 70.3335 48.8481H59.9594V46.1817H65.0502C65.6974 46.1817 66.2221 45.657 66.2221 45.0098C66.2221 44.3626 65.6974 43.8379 65.0502 43.8379H59.9594V41.1718H78.828C79.4751 41.1718 79.9998 40.6472 79.9998 40C79.9998 39.3528 79.4751 38.8281 78.828 38.8281ZM75.3803 17.7646C75.6322 17.5127 75.9669 17.3741 76.323 17.3741C76.6791 17.3741 77.0137 17.5127 77.2656 17.7646C77.5175 18.0165 77.6561 18.3511 77.6561 18.7072C77.6561 19.0633 77.5175 19.398 77.2656 19.6499C77.0137 19.9018 76.6791 20.0404 76.323 20.0404C75.9669 20.0404 75.6322 19.9018 75.3803 19.6499C75.1284 19.398 74.9898 19.0633 74.9898 18.7072C74.9898 18.3511 75.1284 18.0163 75.3803 17.7646ZM19.6499 4.61995C19.1302 5.13948 18.2844 5.13963 17.7644 4.61979C17.2446 4.09995 17.2446 3.25417 17.7644 2.73449C18.0244 2.47449 18.3657 2.34464 18.7073 2.34464C19.0487 2.34464 19.3901 2.47464 19.6499 2.73449C20.1697 3.25433 20.1697 4.10011 19.6499 4.61995ZM50.0201 7.51509C49.2851 7.51509 48.687 6.91697 48.687 6.18197C48.687 5.44698 49.2849 4.84885 50.0201 4.84885C50.7552 4.84885 51.3532 5.44698 51.3532 6.18197C51.3532 6.91697 50.7551 7.51509 50.0201 7.51509ZM73.818 48.687C74.5531 48.687 75.1511 49.2851 75.1511 50.0201C75.1511 50.7552 74.553 51.3532 73.818 51.3532C73.083 51.3532 72.4849 50.7551 72.4849 50.0201C72.4847 49.2849 73.0828 48.687 73.818 48.687Z" fill="#252422"/>
<path d="M63.8926 73.723C62.749 72.5792 61.0341 72.3509 59.659 73.032L51.9492 65.3221C51.4607 64.8338 51.1918 64.1844 51.1918 63.4938V59.9596H53.7774C54.3001 59.9596 54.8198 59.894 55.3221 59.7647C55.9488 59.6035 56.3262 58.9646 56.1649 58.3377C56.0037 57.711 55.3651 57.3337 54.7379 57.4949C54.4263 57.5751 54.1032 57.6157 53.7774 57.6157H26.2222C24.1058 57.6157 22.3841 55.8938 22.3841 53.7776V26.2224C22.3841 25.8966 22.4248 25.5735 22.5049 25.2621C22.6663 24.6353 22.289 23.9964 21.6623 23.835C21.0354 23.6736 20.3965 24.051 20.2352 24.6777C20.1059 25.1799 20.0404 25.6996 20.0404 26.2224V28.808H9.66621C9.17574 27.3536 7.79966 26.303 6.18185 26.303C4.15436 26.303 2.50499 27.9524 2.50499 29.9799C2.50499 32.0073 4.15451 33.6567 6.18185 33.6567C7.79966 33.6567 9.17559 32.6061 9.66621 31.1517H20.0402V33.8181H14.9495C14.3023 33.8181 13.7776 34.3428 13.7776 34.99C13.7776 35.6372 14.3023 36.1619 14.9495 36.1619H20.0402V38.8281H1.17187C0.524685 38.8281 0 39.3528 0 40C0 40.6472 0.524685 41.1718 1.17187 41.1718H20.0402V43.8381H14.9495C14.3023 43.8381 13.7776 44.3628 13.7776 45.01C13.7776 45.6571 14.3023 46.1818 14.9495 46.1818H20.0402V48.8482H16.5059C15.1892 48.8482 13.9512 49.3609 13.0203 50.292L5.3131 57.9991C4.81092 57.749 4.2542 57.6158 3.6767 57.6158C2.69452 57.6158 1.77124 57.9983 1.07671 58.6927C0.382498 59.3872 0 60.3107 0 61.2927C0 62.2747 0.382498 63.1982 1.07703 63.8927C1.7714 64.5872 2.69483 64.9696 3.67702 64.9696C4.6592 64.9696 5.58248 64.5871 6.27701 63.8927C6.97153 63.1982 7.35403 62.2749 7.35403 61.2927C7.35403 60.7152 7.22091 60.1585 6.97075 59.6563L14.6779 51.9491C15.1662 51.4609 15.8156 51.1918 16.5063 51.1918H20.0407V53.7774C20.0407 57.1862 22.814 59.9593 26.2226 59.9593H28.8082V70.3333C27.3538 70.8238 26.3032 72.1999 26.3032 73.8177C26.3032 75.8451 27.9527 77.4945 29.98 77.4945C32.0074 77.4945 33.6569 75.845 33.6569 73.8177C33.6569 72.1999 32.6063 70.8239 31.1519 70.3333V59.9593H33.8181V65.05C33.8181 65.6972 34.3428 66.2219 34.99 66.2219C35.6372 66.2219 36.1619 65.6972 36.1619 65.05V59.9593H38.828V78.8279C38.828 79.4751 39.3527 79.9998 39.9998 79.9998C40.647 79.9998 41.1717 79.4751 41.1717 78.8279V59.9596H43.8379V65.0503C43.8379 65.6975 44.3626 66.2222 45.0098 66.2222C45.657 66.2222 46.1817 65.6975 46.1817 65.0503V59.9596H48.8479V63.4938C48.8479 64.8105 49.3607 66.0485 50.2918 66.9794L58.0016 74.6892C57.3206 76.0644 57.5488 77.779 58.6926 78.9228C59.4093 79.6397 60.351 79.9979 61.2926 79.9979C62.2341 79.9979 63.1758 79.6397 63.8926 78.9228C65.3261 77.4892 65.3261 75.1566 63.8926 73.723ZM6.18185 31.313C5.4467 31.313 4.84873 30.7148 4.84873 29.9799C4.84873 29.2447 5.44685 28.6467 6.18185 28.6467C6.91685 28.6467 7.51497 29.2449 7.51497 29.9799C7.51513 30.715 6.917 31.313 6.18185 31.313ZM4.61951 62.2354C4.36764 62.4872 4.03295 62.6258 3.67686 62.6258C3.32077 62.6258 2.98608 62.4872 2.73421 62.2354C2.48233 61.9835 2.34374 61.6488 2.34374 61.2927C2.34374 60.9366 2.48233 60.6019 2.73421 60.3501C2.98608 60.0982 3.32077 59.9596 3.67686 59.9596C4.03295 59.9596 4.36764 60.0982 4.61951 60.3501C4.87139 60.6019 5.00998 60.9366 5.00998 61.2927C5.00998 61.6488 4.87139 61.9836 4.61951 62.2354ZM31.3128 73.818C31.3128 74.553 30.7149 75.1511 29.9797 75.1511C29.2446 75.1511 28.6466 74.553 28.6466 73.818C28.6466 73.083 29.2447 72.4848 29.9797 72.4848C30.7147 72.4848 31.3128 73.083 31.3128 73.818ZM62.2354 77.2656C61.7155 77.7855 60.8698 77.7853 60.3499 77.2656C59.8301 76.7458 59.8301 75.9 60.3499 75.3803C60.6099 75.1205 60.9513 74.9905 61.2927 74.9905C61.6341 74.9905 61.9755 75.1205 62.2354 75.3803C62.7551 75.9 62.7551 76.7458 62.2354 77.2656Z" fill="#252422"/>
<path d="M52.4443 36.8689C52.4443 34.3626 50.6112 32.2397 48.1017 31.5498C48.1759 31.2434 48.2171 30.9283 48.2171 30.6062C48.2171 28.2334 46.1111 26.303 43.5226 26.303C42.1205 26.303 40.8609 26.87 40 27.7663C39.1391 26.87 37.8794 26.303 36.4773 26.303C33.8888 26.303 31.7828 28.2334 31.7828 30.6062C31.7828 30.9283 31.8241 31.2434 31.8983 31.5498C29.3888 32.2395 27.5557 34.3625 27.5557 36.8689C27.5557 38.0937 27.9891 39.2493 28.7899 40.2037C28.0069 41.2173 27.5557 42.4478 27.5557 43.7578C27.5554 45.7502 28.62 47.6107 30.3736 48.7648C30.3736 48.7657 30.3736 48.7666 30.3736 48.7676C30.3736 51.4857 32.7956 53.6971 35.7728 53.6971C37.4838 53.6971 39.0102 52.966 40 51.8288C40.9898 52.966 42.5162 53.6971 44.2272 53.6971C47.0923 53.6971 49.4421 51.6487 49.615 49.0718C51.3551 48.0621 52.4443 46.2935 52.4443 44.3839C52.4443 42.9792 51.8454 41.6392 50.8146 40.6264C51.8453 39.6136 52.4443 38.2734 52.4443 36.8689ZM48.2968 41.6626C49.4261 42.2585 50.1001 43.2759 50.1001 44.3839C50.1001 45.2099 49.7162 45.9979 49.0678 46.5871C48.4517 45.4463 47.3628 44.5382 45.987 44.106C45.3698 43.9121 44.7118 44.2554 44.5178 44.8728C44.3237 45.4903 44.6672 46.1481 45.2845 46.342C46.4792 46.7174 47.282 47.6923 47.282 48.7677C47.282 50.1935 45.9114 51.3535 44.2265 51.3535C42.5419 51.3535 41.1712 50.1935 41.1712 48.7677V41.2526C41.1712 39.8268 42.5419 38.667 44.2265 38.667C44.8737 38.667 45.3984 38.1423 45.3984 37.4951C45.3984 36.8479 44.8737 36.3233 44.2265 36.3233C43.0931 36.3233 42.0406 36.6445 41.1712 37.1915V35.6947C41.1712 35.0475 40.6466 34.5228 39.9994 34.5228C39.3522 34.5228 38.8275 35.0475 38.8275 35.6947V42.2004C38.4331 41.9529 38.0006 41.7481 37.5328 41.601C36.915 41.407 36.2575 41.7504 36.0636 42.3676C35.8695 42.9851 36.2128 43.6429 36.8302 43.837C38.0248 44.2124 38.8275 45.1873 38.8275 46.2626V48.7676C38.8275 50.1934 37.4569 51.3534 35.7722 51.3534C34.0874 51.3534 32.7167 50.1934 32.7167 48.7676C32.7167 48.1565 32.9758 47.5624 33.4461 47.0949C33.9052 46.6387 33.9074 45.8967 33.4511 45.4376C32.9949 44.9785 32.253 44.9763 31.7939 45.4326C31.5131 45.7118 31.2714 46.0168 31.0705 46.341C30.3305 45.641 29.8985 44.7201 29.8985 43.7574C29.8985 42.0212 31.2611 40.4959 33.2122 40.0482C33.843 39.9036 34.237 39.2748 34.0924 38.644C33.9477 38.0131 33.3188 37.6192 32.6881 37.7639C31.9027 37.944 31.1796 38.2448 30.5383 38.6397C30.1225 38.1175 29.8986 37.5059 29.8986 36.8686C29.8991 35.1059 31.57 33.6709 33.6299 33.6573C33.6403 33.6576 33.6508 33.659 33.6611 33.659C33.9286 33.659 34.1975 33.568 34.4177 33.3815C34.8669 33.0012 34.957 32.3559 34.6555 31.8705C34.6466 31.8561 34.6384 31.8414 34.6291 31.8275C34.6242 31.8205 34.6184 31.8137 34.6134 31.8067C34.5953 31.7812 34.5767 31.7562 34.5566 31.7322C34.5559 31.7314 34.5555 31.7306 34.5549 31.73C34.3594 31.4989 34.1261 31.1164 34.1261 30.6061C34.1261 29.5256 35.1808 28.6466 36.4769 28.6466C37.773 28.6466 38.8277 29.5256 38.8277 30.6061C38.8277 31.2533 39.3523 31.778 39.9995 31.778C40.6467 31.778 41.1714 31.2533 41.1714 30.6061C41.1714 29.5256 42.2261 28.6466 43.5222 28.6466C44.8183 28.6466 45.8729 29.5256 45.8729 30.6061C45.8729 30.8948 45.7973 31.1411 45.6972 31.3436C45.0306 31.4066 44.3859 31.5676 43.7739 31.8258C43.1775 32.0772 42.898 32.7645 43.1494 33.3609C43.4008 33.9572 44.0881 34.237 44.6845 33.9854C45.1911 33.7719 45.7361 33.662 46.3045 33.6576C46.3157 33.658 46.3268 33.659 46.3381 33.659C46.3486 33.659 46.3589 33.6576 46.3693 33.6573C48.4292 33.6708 50.1001 35.1059 50.1001 36.8686C50.1001 37.9765 49.4261 38.9937 48.2968 39.5898C47.9125 39.7926 47.6718 40.1915 47.6718 40.6262C47.6718 41.0609 47.9125 41.4598 48.2968 41.6626Z" fill="#252422"/>
<defs>
<linearGradient id="paint0_linear" x1="16" y1="34.3167" x2="54.0013" y2="34.3167" gradientUnits="userSpaceOnUse">
<stop stop-color="#F6D265"/>
<stop offset="1" stop-color="#FDA084"/>
</linearGradient>
</defs>
</svg>
