<svg width="80" height="80" viewBox="0 0 80 80" fill="none" xmlns="http://www.w3.org/2000/svg">
<g clip-path="url(#clip0)">
<rect x="40.0859" y="32.4326" width="31.7039" height="7.52089" rx="1" fill="url(#paint0_linear)"/>
<rect x="40.0859" y="45.1646" width="31.7039" height="7.52089" rx="1" fill="url(#paint1_linear)"/>
<rect x="40.0859" y="57.9241" width="31.7039" height="7.52089" rx="1" fill="url(#paint2_linear)"/>
<path d="M9.21193 29.3042C9.4402 29.5325 9.73989 29.6472 10.0396 29.6472C10.3393 29.6472 10.6389 29.5331 10.8678 29.3042C11.325 28.8471 11.325 28.1055 10.8678 27.6483L8.02479 24.8053L10.8678 21.9629C11.325 21.5051 11.325 20.7641 10.8678 20.307C10.4107 19.8498 9.66909 19.8498 9.21193 20.307L5.54126 23.9776C5.32153 24.1974 5.19824 24.4952 5.19824 24.8053C5.19824 25.116 5.32153 25.4138 5.54126 25.6335L9.21193 29.3042Z" fill="#252422"/>
<path d="M20.8313 24.8053L17.9883 27.6483C17.5311 28.1055 17.5311 28.8471 17.9889 29.3042C18.2172 29.5325 18.5169 29.6472 18.8165 29.6472C19.1162 29.6472 19.4159 29.5325 19.6442 29.3042L23.3155 25.6329C23.7726 25.1758 23.7726 24.4342 23.3155 23.9776L19.6442 20.3064C19.187 19.8492 18.4461 19.8492 17.9889 20.3064C17.5311 20.7641 17.5311 21.5051 17.9889 21.9623L20.8313 24.8053Z" fill="#252422"/>
<path d="M12.6833 29.5659C12.8237 29.6209 12.969 29.6471 13.1112 29.6471C13.5787 29.6471 14.02 29.3651 14.2013 28.9043L17.0852 21.5624C17.322 20.9606 17.0254 20.2812 16.4236 20.0444C15.8224 19.8082 15.1425 20.1042 14.9063 20.706L12.0217 28.048C11.7855 28.6498 12.0815 29.3297 12.6833 29.5659Z" fill="#252422"/>
<path d="M7.03199 36.5161H14.9196C15.566 36.5161 16.0902 35.9918 16.0902 35.3449C16.0902 34.6985 15.566 34.1742 14.9196 34.1742H7.03199C6.38501 34.1742 5.86133 34.6985 5.86133 35.3449C5.86133 35.9918 6.38501 36.5161 7.03199 36.5161Z" fill="#252422"/>
<path d="M33.0867 34.1742H19.2195C18.5731 34.1742 18.0488 34.6985 18.0488 35.3449C18.0488 35.9918 18.5731 36.5161 19.2195 36.5161H33.0867C33.7337 36.5161 34.258 35.9918 34.258 35.3449C34.258 34.6985 33.7337 34.1742 33.0867 34.1742Z" fill="#252422"/>
<path d="M7.03199 41.4545H10.392C11.0383 41.4545 11.5626 40.9302 11.5626 40.2832C11.5626 39.6368 11.0383 39.1125 10.392 39.1125H7.03199C6.38501 39.1125 5.86133 39.6368 5.86133 40.2832C5.86133 40.9302 6.38501 41.4545 7.03199 41.4545Z" fill="#252422"/>
<path d="M28.8035 39.1125C28.1565 39.1125 27.6328 39.6368 27.6328 40.2832C27.6328 40.9302 28.1565 41.4545 28.8035 41.4545H30.8494C31.4963 41.4545 32.0206 40.9302 32.0206 40.2832C32.0206 39.6368 31.4963 39.1125 30.8494 39.1125H28.8035Z" fill="#252422"/>
<path d="M25.7215 40.2832C25.7215 39.6368 25.1972 39.1125 24.5508 39.1125H14.5007C13.8538 39.1125 13.3301 39.6368 13.3301 40.2832C13.3301 40.9302 13.8538 41.4545 14.5007 41.4545H24.5508C25.1972 41.4545 25.7215 40.9302 25.7215 40.2832Z" fill="#252422"/>
<path d="M33.3916 40.2832C33.3916 40.9302 33.9159 41.4545 34.5623 41.4545H38.3947C39.0417 41.4545 39.5659 40.9302 39.5659 40.2832C39.5659 39.6368 39.0417 39.1125 38.3947 39.1125H34.5623C33.9159 39.1125 33.3916 39.6368 33.3916 40.2832Z" fill="#252422"/>
<path d="M27.015 25.7445H31.0574C31.7044 25.7445 32.2287 25.2202 32.2287 24.5732C32.2287 23.9269 31.7044 23.4026 31.0574 23.4026H27.015C26.368 23.4026 25.8438 23.9269 25.8438 24.5732C25.8438 25.2202 26.368 25.7445 27.015 25.7445Z" fill="#252422"/>
<path d="M35.5853 25.7445H60.2503C60.8973 25.7445 61.421 25.2202 61.421 24.5732C61.421 23.9269 60.8973 23.4026 60.2503 23.4026H35.5853C34.9384 23.4026 34.4141 23.9269 34.4141 24.5732C34.4141 25.2202 34.9384 25.7445 35.5853 25.7445Z" fill="#252422"/>
<path d="M56.5039 28.5541H46.5125C45.8661 28.5541 45.3418 29.0784 45.3418 29.7254C45.3418 30.3717 45.8661 30.896 46.5125 30.896H56.5039C57.1503 30.896 57.6746 30.3717 57.6746 29.7254C57.6746 29.0784 57.1503 28.5541 56.5039 28.5541Z" fill="#252422"/>
<path d="M42.7653 28.5541H39.3308C38.6838 28.5541 38.1602 29.0784 38.1602 29.7254C38.1602 30.3717 38.6838 30.896 39.3308 30.896H42.7653C43.4122 30.896 43.9359 30.3717 43.9359 29.7254C43.9359 29.0784 43.4122 28.5541 42.7653 28.5541Z" fill="#252422"/>
<path d="M27.015 30.896H35.4287C36.0751 30.896 36.5994 30.3717 36.5994 29.7254C36.5994 29.0784 36.0751 28.5541 35.4287 28.5541H27.015C26.368 28.5541 25.8438 29.0784 25.8438 29.7254C25.8438 30.3717 26.368 30.896 27.015 30.896Z" fill="#252422"/>
<path d="M24.5661 44.0094H16.6791C16.0321 44.0094 15.5078 44.5337 15.5078 45.1801C15.5078 45.8264 16.0321 46.3507 16.6791 46.3507H24.5661C25.2124 46.3507 25.7367 45.8264 25.7367 45.1801C25.7367 44.5337 25.2124 44.0094 24.5661 44.0094Z" fill="#252422"/>
<path d="M13.0916 44.0094H7.03199C6.38501 44.0094 5.86133 44.5337 5.86133 45.1801C5.86133 45.8264 6.38501 46.3507 7.03199 46.3507H13.0916C13.7386 46.3507 14.2622 45.8264 14.2622 45.1801C14.2622 44.5337 13.7386 44.0094 13.0916 44.0094Z" fill="#252422"/>
<path d="M38.8627 44.0094H28.5593C27.9124 44.0094 27.3887 44.5337 27.3887 45.1801C27.3887 45.8264 27.9124 46.3507 28.5593 46.3507H38.8627C39.5091 46.3507 40.0334 45.8264 40.0334 45.1801C40.0334 44.5337 39.5091 44.0094 38.8627 44.0094Z" fill="#252422"/>
<path d="M52.797 37.995H47.1628C46.5165 37.995 45.9922 38.5193 45.9922 39.1657C45.9922 39.8126 46.5165 40.3369 47.1628 40.3369H52.797C53.444 40.3369 53.9677 39.8126 53.9677 39.1657C53.9677 38.5193 53.444 37.995 52.797 37.995Z" fill="#252422"/>
<path d="M62.573 40.3369H70.5265C71.1735 40.3369 71.6978 39.8126 71.6978 39.1657C71.6978 38.5193 71.1735 37.995 70.5265 37.995H62.573C61.926 37.995 61.4023 38.5193 61.4023 39.1657C61.4023 39.8126 61.9266 40.3369 62.573 40.3369Z" fill="#252422"/>
<path d="M58.5963 37.995H56.7738C56.1268 37.995 55.6025 38.5193 55.6025 39.1657C55.6025 39.8126 56.1268 40.3369 56.7738 40.3369H58.5963C59.2433 40.3369 59.767 39.8126 59.767 39.1657C59.767 38.5193 59.2433 37.995 58.5963 37.995Z" fill="#252422"/>
<path d="M47.1628 53.0957H52.797C53.444 53.0957 53.9677 52.572 53.9677 51.9251C53.9677 51.2787 53.444 50.7544 52.797 50.7544H47.1628C46.5165 50.7544 45.9922 51.2787 45.9922 51.9251C45.9922 52.572 46.5165 53.0957 47.1628 53.0957Z" fill="#252422"/>
<path d="M62.573 53.0957H70.5265C71.1735 53.0957 71.6978 52.572 71.6978 51.9251C71.6978 51.2787 71.1735 50.7544 70.5265 50.7544H62.573C61.926 50.7544 61.4023 51.2787 61.4023 51.9251C61.4023 52.572 61.9266 53.0957 62.573 53.0957Z" fill="#252422"/>
<path d="M56.7742 53.0957H58.5967C59.2437 53.0957 59.768 52.572 59.768 51.9251C59.768 51.2787 59.2437 50.7544 58.5967 50.7544H56.7742C56.1272 50.7544 55.6035 51.2787 55.6035 51.9251C55.6035 52.572 56.1272 53.0957 56.7742 53.0957Z" fill="#252422"/>
<path d="M52.797 63.5139H47.1628C46.5165 63.5139 45.9922 64.0382 45.9922 64.6846C45.9922 65.3309 46.5165 65.8552 47.1628 65.8552H52.797C53.444 65.8552 53.9677 65.3309 53.9677 64.6846C53.9677 64.0382 53.444 63.5139 52.797 63.5139Z" fill="#252422"/>
<path d="M70.5265 63.5139H62.573C61.926 63.5139 61.4023 64.0382 61.4023 64.6846C61.4023 65.3309 61.926 65.8552 62.573 65.8552H70.5265C71.1735 65.8552 71.6978 65.3309 71.6978 64.6846C71.6978 64.0382 71.1735 63.5139 70.5265 63.5139Z" fill="#252422"/>
<path d="M58.5963 63.5139H56.7738C56.1268 63.5139 55.6025 64.0382 55.6025 64.6846C55.6025 65.3309 56.1268 65.8552 56.7738 65.8552H58.5963C59.2433 65.8552 59.767 65.3309 59.767 64.6846C59.767 64.0382 59.2433 63.5139 58.5963 63.5139Z" fill="#252422"/>
<path d="M74.8477 0.156128H5.15322C2.31202 0.156128 0 2.46754 0 5.30935V61.9606C0 64.8018 2.31202 67.1132 5.15322 67.1132H9.55936C10.2057 67.1132 10.73 66.5895 10.73 65.9425C10.73 65.2962 10.2057 64.7719 9.55936 64.7719H5.15322C3.60292 64.7719 2.34193 63.5109 2.34193 61.9606V57.519H44.9977V59.5369H44.0694C42.7992 59.5369 41.7665 60.5696 41.7665 61.8397V64.7719H16.6779C16.0316 64.7719 15.5073 65.2962 15.5073 65.9425C15.5073 66.5895 16.0316 67.1132 16.6779 67.1132H27.9353V71.3124H24.4001C22.0417 71.3124 20.1234 73.2314 20.1234 75.5892V78.1185C20.1234 79.1945 20.9986 80.0698 22.0747 80.0698H57.8365C58.9126 80.0698 59.7878 79.1945 59.7878 78.1185V75.5892C59.7878 73.2314 57.8695 71.3124 55.5111 71.3124H51.9759V69.8323H73.6209C74.8904 69.8323 75.9231 68.7996 75.9231 67.5294V66.9783C78.2053 66.4485 79.9112 64.4008 79.9112 61.9606L79.9997 5.30874C80.0003 2.46754 77.6889 0.156128 74.8477 0.156128ZM44.1084 54.7315V49.1193H73.5818V54.7315H44.1084ZM47.3391 46.7774V44.314H70.3506V46.7774H47.3391ZM70.3506 57.0729V59.5369H47.3391V57.0729H70.3506ZM30.2766 67.1132H41.7665V67.5301C41.7665 68.7996 42.7992 69.8323 44.0694 69.8323H49.6346V71.3124H30.2766V67.1132ZM55.5117 73.6544C56.5786 73.6544 57.4465 74.5223 57.4465 75.5892V77.7285H22.4647V75.5892C22.4647 74.5223 23.3332 73.6544 24.4001 73.6544H55.5117ZM73.5818 67.4904H44.1084V61.8788H73.5818V67.4904ZM77.5699 61.9606C77.5699 63.0946 76.8936 64.0718 75.9238 64.5155V61.8391C75.9238 60.5696 74.8904 59.5369 73.6209 59.5369H72.6925V57.519H77.5699V61.9606ZM77.5699 55.1777H75.8853C75.9091 55.0453 75.9238 49.0803 75.9238 49.0803C75.9238 47.8101 74.8904 46.7774 73.6209 46.7774H72.6925V44.314H73.6209C74.8904 44.314 75.9238 43.2807 75.9238 42.0112V36.3208C75.9238 35.0513 74.8904 34.018 73.6209 34.018H67.0077C66.3607 34.018 65.8371 34.5423 65.8371 35.1892C65.8371 35.8356 66.3607 36.3599 67.0077 36.3599H73.5818V41.9721H44.1084V36.3599H59.7225C60.3695 36.3599 60.8932 35.8356 60.8932 35.1892C60.8932 34.5423 60.3695 34.018 59.7225 34.018H44.0694C42.7992 34.018 41.7665 35.0513 41.7665 36.3208V42.0112C41.7665 43.2807 42.7992 44.314 44.0694 44.314H44.9977V46.7774H44.0694C42.7992 46.7774 41.7665 47.8107 41.7665 49.0803C41.7665 49.0803 41.7812 55.0453 41.805 55.1777H2.34193V16.0827H77.5699V55.1777ZM77.5699 13.7408H2.42799V5.30874C2.42799 3.75905 3.68898 2.49806 5.23928 2.49806H74.7586C76.3089 2.49806 77.5699 3.75905 77.5699 5.30935V13.7408Z" fill="#252422"/>
<path d="M8.63392 4.65015C6.73939 4.65015 5.19824 6.19129 5.19824 8.08583C5.19824 9.98037 6.73939 11.5221 8.63392 11.5221C10.5285 11.5221 12.0702 9.98037 12.0702 8.08583C12.0702 6.19129 10.5285 4.65015 8.63392 4.65015ZM8.63392 9.18019C8.0309 9.18019 7.53956 8.68947 7.53956 8.08583C7.53956 7.4828 8.0309 6.99146 8.63392 6.99146C9.23757 6.99146 9.72829 7.4828 9.72829 8.08583C9.72829 8.68947 9.23757 9.18019 8.63392 9.18019Z" fill="#252422"/>
<path d="M17.3826 4.65015C15.488 4.65015 13.9463 6.19129 13.9463 8.08583C13.9463 9.98037 15.488 11.5221 17.3826 11.5221C19.2771 11.5221 20.8183 9.98037 20.8183 8.08583C20.8183 6.19129 19.2765 4.65015 17.3826 4.65015ZM17.3826 9.18019C16.7789 9.18019 16.2882 8.68947 16.2882 8.08583C16.2882 7.4828 16.7789 6.99146 17.3826 6.99146C17.9856 6.99146 18.4769 7.4828 18.4769 8.08583C18.4769 8.68947 17.9856 9.18019 17.3826 9.18019Z" fill="#252422"/>
<path d="M26.13 4.65015C24.2355 4.65015 22.6943 6.19129 22.6943 8.08583C22.6943 9.98037 24.2355 11.5221 26.13 11.5221C28.0246 11.5221 29.5663 9.98037 29.5663 8.08583C29.5663 6.19129 28.0246 4.65015 26.13 4.65015ZM26.13 9.18019C25.527 9.18019 25.0357 8.68947 25.0357 8.08583C25.0357 7.4828 25.527 6.99146 26.13 6.99146C26.7337 6.99146 27.2244 7.4828 27.2244 8.08583C27.2244 8.68947 26.7337 9.18019 26.13 9.18019Z" fill="#252422"/>
</g>
<defs>
<linearGradient id="paint0_linear" x1="40.0859" y1="36.1931" x2="71.7898" y2="36.1931" gradientUnits="userSpaceOnUse">
<stop stop-color="#F6D265"/>
<stop offset="1" stop-color="#FDA084"/>
</linearGradient>
<linearGradient id="paint1_linear" x1="40.0859" y1="48.925" x2="71.7898" y2="48.925" gradientUnits="userSpaceOnUse">
<stop stop-color="#F6D265"/>
<stop offset="1" stop-color="#FDA084"/>
</linearGradient>
<linearGradient id="paint2_linear" x1="40.0859" y1="61.6845" x2="71.7898" y2="61.6845" gradientUnits="userSpaceOnUse">
<stop stop-color="#F6D265"/>
<stop offset="1" stop-color="#FDA084"/>
</linearGradient>
<clipPath id="clip0">
<rect width="80" height="80" fill="white"/>
</clipPath>
</defs>
</svg>
