<svg width="80" height="80" viewBox="0 0 80 80" fill="none" xmlns="http://www.w3.org/2000/svg">
<rect x="5.39355" y="67.6813" width="13.7471" height="6.65133" rx="1" fill="url(#paint0_linear)"/>
<rect x="20.4746" y="60.7051" width="15.081" height="13.6275" rx="1" fill="url(#paint1_linear)"/>
<rect x="36.376" y="53.2159" width="14.3629" height="21.1167" rx="1" fill="url(#paint2_linear)"/>
<rect x="51.3545" y="41.3153" width="14.7731" height="33.0173" rx="1" fill="url(#paint3_linear)"/>
<path d="M75.482 10.7544L72.0635 7.74412L75.482 4.73449C76.0136 4.26574 76.1955 3.53515 75.9459 2.87231C75.695 2.20886 75.0755 1.78039 74.3669 1.78039H60.2202V1.17248C60.2202 0.524901 59.6953 0 59.0477 0C58.4002 0 57.8753 0.524901 57.8753 1.17248V16.9854L48.2458 22.2143C48.1927 21.7907 48.0657 21.3745 47.8649 20.9826L46.5081 18.3337C45.5767 16.5149 43.3392 15.794 41.5215 16.7248L40.4723 17.2619C39.591 17.7136 38.9385 18.4802 38.6346 19.4226C38.3306 20.3643 38.4118 21.3684 38.8635 22.2491L40.2203 24.8986C40.537 25.5169 41.0052 26.0064 41.5557 26.3494C40.8355 27.3193 40.4937 28.5119 40.1421 29.7509L39.8895 30.6457C39.7131 31.2689 40.0756 31.917 40.6988 32.0928C40.805 32.1233 40.9124 32.1374 41.018 32.1374C41.5295 32.1374 41.9994 31.8005 42.1459 31.2835L42.3986 30.3906C42.9125 28.5784 43.2281 27.608 44.2327 27.0623L46.0339 26.0839L46.256 25.9704C46.3299 25.9326 46.3988 25.8898 46.469 25.8477L59.3059 18.8769C59.2247 20.4815 58.3611 21.9976 56.939 22.8613L48.5912 27.9333C48.5815 27.9388 48.5717 27.9443 48.5625 27.9504L45.9643 29.5287C45.4113 29.8651 45.2349 30.5865 45.5712 31.1401C45.888 31.6619 46.5472 31.8475 47.0849 31.5856L45.1134 37.5451L43.6724 38.1359L39.754 39.7417L40.8831 35.75C41.0589 35.1269 40.6969 34.4787 40.0738 34.3023C39.45 34.1253 38.8024 34.4885 38.626 35.1116L36.842 41.4208C36.8188 41.502 36.8035 41.5911 36.7999 41.6759L36.3329 50.2526C36.3189 50.5797 36.3885 51.198 36.2371 51.5172L31.0516 62.4266H27.2833C25.0756 62.4266 23.28 64.2223 23.28 66.4293V69.8137C22.7746 69.5824 22.2137 69.453 21.6223 69.453H12.0526C9.84557 69.453 8.04992 71.248 8.04992 73.4557V77.6549H5.23498C4.5874 77.6549 4.0625 78.1798 4.0625 78.8274C4.0625 79.4749 4.5874 79.9998 5.23498 79.9998H74.3657C75.0133 79.9998 75.5382 79.4749 75.5382 78.8274C75.5382 78.1798 75.0133 77.6549 74.3657 77.6549H71.3164V47.4334C71.3164 45.2263 69.5207 43.4307 67.3137 43.4307H60.2202V22.976C61.5203 21.2139 62.0018 18.9044 61.3982 16.7096C61.3036 16.3647 61.0564 16.0815 60.7268 15.9417C60.5651 15.8728 60.3917 15.8423 60.2202 15.849V13.7085H74.3663C75.0755 13.7085 75.695 13.28 75.9453 12.6172C76.1955 11.9543 76.0136 11.2231 75.482 10.7544ZM40.8666 20.1428C40.9783 19.7967 41.2176 19.5147 41.5411 19.3493L42.5903 18.8122C42.788 18.7109 42.9992 18.6627 43.2079 18.6627C43.7023 18.6627 44.1802 18.9331 44.4207 19.4024L45.7781 22.052C46.0949 22.6709 45.8898 23.421 45.3265 23.8L44.9444 24.0069L44.1381 24.4201C43.471 24.7619 42.6495 24.497 42.3077 23.8293L40.9502 21.1804C40.7848 20.8569 40.7549 20.4882 40.8666 20.1428ZM38.5107 62.7873C38.1121 62.6055 37.6788 62.4864 37.2234 62.4443L38.5107 60.7347V62.7873ZM44.0777 53.3397C44.6416 52.6641 44.7973 51.8749 44.923 51.2389C44.9548 51.0875 45.5334 47.9272 45.5334 47.9272C45.5334 47.9272 46.0808 48.2683 46.1382 48.2928C46.1779 48.3105 46.206 48.3495 46.2102 48.3953L46.8481 54.879H42.9186L44.0777 53.3397ZM51.0113 46.8682L50.0213 54.8735H49.204L48.5442 48.1658C48.46 47.3064 47.9339 46.5563 47.163 46.1834L45.9838 45.4357L46.7693 41.0821C46.7693 41.0821 50.0786 45.0133 50.1555 45.1134C50.8404 46.0039 51.0747 46.3604 51.0113 46.8682ZM38.3465 52.5426C38.5833 51.8297 38.6932 51.104 38.6749 50.3661L39.1009 42.5439L44.5238 40.3216L43.5381 45.7818C43.5351 45.7964 43.532 45.8117 43.5302 45.8263L42.7148 50.3411C42.6086 50.8086 42.5158 51.5178 42.224 51.903L34.3011 62.4266H33.648L38.3465 52.5426ZM10.3949 73.4551C10.3949 72.5414 11.1383 71.798 12.0526 71.798H21.6223C22.5366 71.798 23.2806 72.5414 23.2806 73.4551V77.6549H10.3949V73.4551ZM25.625 73.4551V66.4293C25.625 65.515 26.369 64.7716 27.2833 64.7716H36.853C37.7673 64.7716 38.5107 65.515 38.5107 66.4293V77.6549H25.6256V73.4551H25.625ZM68.9714 47.4334V77.6549H56.0863V70.6249C56.0863 69.9773 55.5614 69.4524 54.9138 69.4524C54.2656 69.4524 53.7407 69.9773 53.7407 70.6249V77.6549H40.8556V58.8811C40.8556 57.9674 41.599 57.224 42.5134 57.224H52.083C52.9973 57.224 53.7407 57.9674 53.7407 58.8811V64.7588C53.7407 65.4064 54.2656 65.9313 54.9132 65.9313C55.5614 65.9313 56.0857 65.4064 56.0857 64.7588V47.4334C56.0857 46.5191 56.8297 45.7757 57.744 45.7757H59.0355C59.0392 45.7757 59.0435 45.7763 59.0477 45.7763C59.0514 45.7763 59.0557 45.7757 59.0593 45.7757H67.3131C68.2274 45.7757 68.9714 46.5197 68.9714 47.4334ZM57.744 43.4307C55.537 43.4307 53.7414 45.2263 53.7414 47.4334V55.2398C53.3214 55.0481 52.8637 54.9266 52.3821 54.8912L53.3385 47.1569C53.5265 45.6493 52.7575 44.6502 52.0141 43.6834C51.9353 43.5808 47.3778 38.1695 47.3778 38.1695L50.1739 29.7161L57.8753 25.0372V43.4307H57.744ZM60.2202 11.3629V4.12597H72.6244L69.9529 6.47826C69.5891 6.79869 69.3804 7.26012 69.3804 7.74474C69.3804 8.22935 69.5891 8.69078 69.9529 9.01121L72.6244 11.3635H60.2202V11.3629Z" fill="#252422"/>
<defs>
<linearGradient id="paint0_linear" x1="5.39355" y1="71.0069" x2="19.1407" y2="71.0069" gradientUnits="userSpaceOnUse">
<stop stop-color="#F6D265"/>
<stop offset="1" stop-color="#FDA084"/>
</linearGradient>
<linearGradient id="paint1_linear" x1="20.4746" y1="67.5188" x2="35.5556" y2="67.5188" gradientUnits="userSpaceOnUse">
<stop stop-color="#F6D265"/>
<stop offset="1" stop-color="#FDA084"/>
</linearGradient>
<linearGradient id="paint2_linear" x1="36.376" y1="63.7743" x2="50.7389" y2="63.7743" gradientUnits="userSpaceOnUse">
<stop stop-color="#F6D265"/>
<stop offset="1" stop-color="#FDA084"/>
</linearGradient>
<linearGradient id="paint3_linear" x1="51.3545" y1="57.824" x2="66.1276" y2="57.824" gradientUnits="userSpaceOnUse">
<stop stop-color="#F6D265"/>
<stop offset="1" stop-color="#FDA084"/>
</linearGradient>
</defs>
</svg>
