<svg width="80" height="80" viewBox="0 0 80 80" fill="none" xmlns="http://www.w3.org/2000/svg">
<circle cx="39.2492" cy="34.4916" r="20.3742" fill="url(#paint0_linear)"/>
<path d="M47.8227 26.6855C53.0687 28.0396 57.0377 32.3646 57.9344 37.7042C58.0371 38.315 58.5663 38.7474 59.1657 38.7474C59.2344 38.7474 59.3041 38.7417 59.3743 38.73C60.0551 38.6157 60.5143 37.9711 60.3999 37.2902C59.3397 30.9782 54.648 25.8655 48.4474 24.265C47.7782 24.0922 47.0971 24.4946 46.9246 25.163C46.7524 25.8311 47.1544 26.513 47.8227 26.6855Z" fill="#252422"/>
<path d="M25.4106 66.0355C26.3548 65.0911 26.875 63.8355 26.875 62.5C26.875 61.5919 26.6341 60.7209 26.1833 59.9595L30.2669 55.8759C34.022 59.2169 38.9652 61.25 44.375 61.25C56.0923 61.25 65.625 51.7172 65.625 40C65.625 28.2828 56.0923 18.75 44.375 18.75C32.6577 18.75 23.125 28.2828 23.125 40C23.125 45.4098 25.1581 50.3528 28.4989 54.1081L24.4153 58.1917C23.6539 57.7409 22.7831 57.5 21.875 57.5C20.5394 57.5 19.2839 58.02 18.3395 58.9644L5.83953 71.4644C4.89516 72.4087 4.375 73.6644 4.375 75C4.375 76.3355 4.89516 77.5911 5.83953 78.5356C6.81422 79.5103 8.09469 79.9975 9.375 79.9975C10.6553 79.9975 11.9358 79.5102 12.9105 78.5356L25.4106 66.0355C25.4105 66.0356 25.4105 66.0356 25.4106 66.0355ZM44.375 21.25C54.7137 21.25 63.125 29.6612 63.125 40C63.125 50.3387 54.7137 58.75 44.375 58.75C34.0363 58.75 25.625 50.3387 25.625 40C25.625 29.6612 34.0363 21.25 44.375 21.25ZM23.6427 64.2678L11.1427 76.7677C10.1678 77.7426 8.58172 77.7422 7.60719 76.7678C7.135 76.2956 6.875 75.6677 6.875 75C6.875 74.3322 7.135 73.7044 7.60719 73.2323L20.1072 60.7322C20.5794 60.2602 21.2072 60 21.8748 60C22.5425 60 23.1705 60.26 23.6427 60.7323C24.115 61.2044 24.375 61.8322 24.375 62.5C24.375 63.1677 24.115 63.7956 23.6427 64.2678Z" fill="#252422"/>
<path d="M75.6187 17.3764C75.617 17.3586 75.6136 17.3414 75.6111 17.3239C75.6078 17.3011 75.6052 17.2783 75.6006 17.2555C75.5966 17.235 75.5909 17.2152 75.5859 17.195C75.5811 17.1756 75.5769 17.1561 75.5711 17.1369C75.5652 17.1172 75.5577 17.098 75.5508 17.0786C75.5439 17.0594 75.5377 17.0402 75.5298 17.0212C75.5223 17.0033 75.5136 16.9859 75.5053 16.9684C75.4963 16.9491 75.4875 16.9295 75.4773 16.9105C75.4683 16.8936 75.458 16.8777 75.4483 16.8612C75.4372 16.8427 75.4266 16.8237 75.4144 16.8056C75.4025 16.788 75.3892 16.7712 75.3766 16.7542C75.3648 16.7386 75.3541 16.7225 75.3416 16.7073C75.3178 16.6784 75.2925 16.6508 75.2663 16.6241C75.2636 16.6214 75.2616 16.6184 75.2589 16.6159L59.0089 0.365938C59.0086 0.365625 59.0081 0.365312 59.0078 0.365C58.9688 0.326094 58.9264 0.290781 58.8825 0.257188C58.8723 0.249531 58.8623 0.241719 58.852 0.234375C58.8077 0.2025 58.7617 0.172969 58.7134 0.147188C58.7098 0.145313 58.7061 0.14375 58.7025 0.141875C58.6569 0.118125 58.6092 0.0975 58.5605 0.079375C58.5505 0.0757813 58.5406 0.071875 58.5306 0.0684375C58.4784 0.0504688 58.425 0.0351562 58.3698 0.0242187C58.3683 0.0239062 58.3666 0.02375 58.3648 0.0234375C58.3142 0.0135938 58.2623 0.00765625 58.2098 0.0040625C58.1956 0.003125 58.1814 0.00234375 58.1672 0.001875C58.1531 0.00171875 58.1392 0 58.125 0H16.875C14.8072 0 13.125 1.68234 13.125 3.75V57.4998C13.125 58.1902 13.6847 58.7498 14.375 58.7498C15.0653 58.7498 15.625 58.1902 15.625 57.4998V3.75C15.625 3.06078 16.1858 2.5 16.875 2.5H56.875V15C56.875 17.0677 58.5573 18.75 60.625 18.75H68.1248C68.8152 18.75 69.3748 18.1903 69.3748 17.5C69.3748 16.8097 68.8152 16.25 68.1248 16.25H60.625C59.9358 16.25 59.375 15.6892 59.375 15V4.26766L73.125 18.0177V76.25C73.125 76.9392 72.5642 77.5 71.875 77.5H18.1255C17.4352 77.5 16.8755 78.0597 16.8755 78.75C16.8755 79.4403 17.4352 80 18.1255 80H71.875C73.9428 80 75.625 78.3177 75.625 76.25V17.5003C75.625 17.4591 75.6228 17.4177 75.6187 17.3764Z" fill="#252422"/>
<path d="M55.625 40C55.625 39.3097 55.0653 38.75 54.375 38.75H29.375C28.6847 38.75 28.125 39.3097 28.125 40C28.125 40.6903 28.6847 41.25 29.375 41.25H54.375C55.0653 41.25 55.625 40.6903 55.625 40Z" fill="#252422"/>
<path d="M56.875 45H33.125C32.4347 45 31.875 45.5597 31.875 46.25C31.875 46.9403 32.4347 47.5 33.125 47.5H56.875C57.5653 47.5 58.125 46.9403 58.125 46.25C58.125 45.5597 57.5653 45 56.875 45Z" fill="#252422"/>
<path d="M33.125 35H51.875C52.5653 35 53.125 34.4403 53.125 33.75C53.125 33.0597 52.5653 32.5 51.875 32.5H33.125C32.4347 32.5 31.875 33.0597 31.875 33.75C31.875 34.4403 32.4347 35 33.125 35Z" fill="#252422"/>
<defs>
<linearGradient id="paint0_linear" x1="18.875" y1="34.4916" x2="59.6234" y2="34.4916" gradientUnits="userSpaceOnUse">
<stop stop-color="#F6D265"/>
<stop offset="1" stop-color="#FDA084"/>
</linearGradient>
</defs>
</svg>
