<svg width="560" height="470" viewBox="0 0 560 470" fill="none" xmlns="http://www.w3.org/2000/svg">
<path d="M525.619 227.015C526.182 268.289 492.296 307.422 445.226 307.478C399.312 307.531 364.456 269.764 364.565 226.494C364.675 182.639 400.836 145.732 445.749 146.027C490.374 146.317 526.348 183.647 525.619 227.015ZM445.184 155.117C407.955 154.538 373.644 184.906 373.573 226.732C373.507 265.743 404.427 298.489 445.146 298.468C487.85 298.446 516.838 263.287 516.782 226.776C516.721 187.182 484.233 154.661 445.184 155.117Z" fill="url(#paint0_linear)"/>
<path d="M429.84 377.764C433.32 377.705 436.134 377.665 438.946 377.604C440.034 377.58 441.131 377.576 442.209 377.441C444.076 377.209 445.191 376.195 445.371 374.707C445.569 373.062 444.274 371.85 441.879 371.724C439.268 371.587 436.645 371.694 434.031 371.605C429.292 371.442 428.855 370.746 430.027 365.081C432.108 363.966 434.549 364.552 436.878 364.368C438.822 364.214 440.799 364.21 442.694 363.813C444.068 363.524 444.995 362.285 444.622 360.856C444.386 359.951 443.549 358.844 442.72 358.533C441.337 358.018 439.747 357.93 438.241 357.909C433.225 357.835 428.209 357.905 423.193 357.851C421.049 357.828 418.908 357.636 416.688 357.517C415.135 354.041 415.549 350.876 416.135 347.425C417.419 347.117 418.645 346.573 419.874 346.571C436.666 346.515 453.459 346.525 470.252 346.559C471.304 346.562 472.355 346.901 473.528 347.105C475.009 350.392 474.729 353.514 473.89 356.599C471.61 358.339 469.131 357.715 466.795 357.858C464.405 358.004 461.997 357.954 459.621 358.218C458.289 358.366 457.004 359.193 457.009 360.695C457.014 361.646 457.484 363.092 458.191 363.461C461.522 365.194 461.362 367.718 460.291 370.867C459.05 371.142 457.814 371.495 456.553 371.676C454.904 371.914 453.572 372.479 453.363 374.34C453.185 375.92 454.327 376.967 456.768 377.536C457.401 377.684 458.071 377.668 458.711 377.796C459.132 377.879 459.528 378.083 460.329 378.379C460.523 379.632 460.938 381.084 460.944 382.537C460.994 396.086 461.04 409.636 460.912 423.186C460.888 425.755 460.465 428.457 459.572 430.853C457.197 437.22 451.074 440.84 444.011 440.479C437.438 440.142 431.939 435.861 430.172 429.41C429.545 427.12 429.208 424.68 429.191 422.305C429.098 409.193 429.126 396.08 429.17 382.968C429.173 381.486 429.539 380.006 429.84 377.764Z" fill="url(#paint1_linear)"/>
<path d="M73.4615 94.8779H56.4199V163.382H73.4615V94.8779Z" fill="url(#paint2_linear)"/>
<path d="M114.077 130.978H97.0352V163.382H114.077V130.978Z" fill="url(#paint3_linear)"/>
<path d="M154.695 84.4893H137.653V163.383H154.695V84.4893Z" fill="url(#paint4_linear)"/>
<path d="M195.308 126.23H178.267V163.382H195.308V126.23Z" fill="url(#paint5_linear)"/>
<path d="M235.925 104.894H218.884V163.384H235.925V104.894Z" fill="url(#paint6_linear)"/>
<path d="M276.542 84.4893H259.5V163.383H276.542V84.4893Z" fill="url(#paint7_linear)"/>
<path d="M120.22 201.675H56.1211V265.906H120.22V201.675Z" fill="url(#paint8_linear)"/>
<path d="M120.22 293.148H56.1211V357.38H120.22V293.148Z" fill="url(#paint9_linear)"/>
<path d="M294.643 392.794H51.8542C44.8287 392.794 39.1133 387.067 39.1133 380.027V56.6984C39.1133 49.6584 44.8287 43.9312 51.8542 43.9312H294.641C301.667 43.9312 307.382 49.6584 307.382 56.6984V242.276C307.382 243.84 306.116 245.109 304.556 245.109C302.995 245.109 301.729 243.84 301.729 242.276V56.6984C301.729 52.7826 298.549 49.596 294.641 49.596H51.8542C47.9464 49.596 44.7665 52.7826 44.7665 56.6984V380.027C44.7665 383.943 47.9464 387.129 51.8542 387.129H294.641C298.549 387.129 301.729 383.943 301.729 380.027V328.958C301.729 327.394 302.995 326.125 304.556 326.125C306.116 326.125 307.382 327.394 307.382 328.958V380.027C307.382 387.067 301.667 392.794 294.643 392.794Z" fill="white"/>
<path d="M304.555 312.02C302.995 312.02 301.729 310.751 301.729 309.188V278.375C301.729 276.811 302.995 275.542 304.555 275.542C306.115 275.542 307.382 276.811 307.382 278.375V309.188C307.382 310.753 306.117 312.02 304.555 312.02Z" fill="white"/>
<path d="M310.832 415.286H35.6649C27.9115 415.286 21.6025 408.974 21.6025 401.216V35.5111C21.6025 27.753 27.9115 21.4409 35.6649 21.4409H310.831C318.584 21.4409 324.893 27.753 324.893 35.5111V401.217C324.895 408.974 318.586 415.286 310.832 415.286ZM35.6649 27.1058C31.0279 27.1058 27.2558 30.8758 27.2558 35.5111V401.217C27.2558 405.851 31.0279 409.622 35.6649 409.622H310.831C315.468 409.622 319.24 405.852 319.24 401.217V35.5111C319.24 30.8772 315.468 27.1058 310.831 27.1058H35.6649Z" fill="white"/>
<path d="M454.774 320.094C453.623 324.994 453.507 340.493 454.603 347.302C455.904 347.493 457.342 347.872 458.783 347.887C465.33 347.957 471.879 347.876 478.425 347.938C485.694 348.008 486.737 349.067 486.812 356.305C486.844 359.366 486.89 362.436 486.672 365.484C486.456 368.513 485.136 369.754 482.151 370.082C480.639 370.248 479.094 370.123 477.575 370.251C476.312 370.357 475.065 370.642 473.925 370.829C472.703 373.4 473.193 375.838 473.186 378.194C473.138 395.253 473.217 412.313 473.107 429.371C473.087 432.39 472.788 435.532 471.91 438.398C469.098 447.588 460.614 453.274 450.9 452.869C441.253 452.467 433.381 446 431.334 436.526C430.741 433.778 430.578 430.895 430.565 428.072C430.496 411.452 430.553 394.829 430.506 378.207C430.499 375.843 430.985 373.401 429.734 370.797C428.413 370.619 426.944 370.367 425.466 370.235C423.948 370.099 422.401 370.204 420.898 369.985C418.647 369.655 417.211 368.35 417.128 366.115C416.958 361.533 417.003 356.937 417.102 352.35C417.152 350.068 418.705 348.757 420.777 348.328C422.464 347.978 424.237 347.951 425.972 347.94C432.083 347.896 438.194 347.95 444.305 347.894C445.784 347.882 447.258 347.588 448.63 347.435C449.809 342.436 449.937 326.73 448.846 320.128C446.025 319.692 443.069 319.165 440.092 318.787C402.93 314.073 372.582 283.887 367.018 246.723C360.146 200.832 389.773 160.036 430.914 150.093C484.007 137.264 528.415 173.345 536.327 217.412C545.294 267.362 512.27 309.074 469.527 317.86C464.641 318.866 459.648 319.369 454.774 320.094ZM532.395 233.826C533.124 190.457 497.15 153.128 452.525 152.836C407.612 152.543 371.451 189.449 371.341 233.303C371.232 276.573 406.088 314.343 452.002 314.287C499.072 314.233 532.958 275.1 532.395 233.826ZM436.616 384.576C436.315 386.818 435.949 388.298 435.943 389.778C435.899 402.891 435.871 416.003 435.964 429.115C435.981 431.49 436.317 433.93 436.945 436.22C438.712 442.671 444.211 446.952 450.784 447.289C457.846 447.65 463.97 444.03 466.344 437.663C467.238 435.267 467.66 432.565 467.684 429.996C467.813 416.447 467.765 402.898 467.717 389.347C467.711 387.894 467.296 386.443 467.102 385.189C466.301 384.893 465.905 384.689 465.484 384.606C464.844 384.478 464.174 384.494 463.54 384.346C461.1 383.777 459.958 382.731 460.136 381.15C460.345 379.289 461.676 378.724 463.326 378.486C464.586 378.305 465.823 377.952 467.064 377.677C468.135 374.528 468.295 372.004 464.964 370.271C464.257 369.904 463.786 368.456 463.782 367.505C463.775 366.004 465.06 365.176 466.394 365.028C468.77 364.764 471.178 364.814 473.568 364.668C475.904 364.525 478.383 365.15 480.663 363.409C481.501 360.324 481.781 357.203 480.301 353.915C479.128 353.711 478.076 353.372 477.025 353.369C460.232 353.335 443.439 353.326 426.646 353.381C425.418 353.385 424.193 353.929 422.908 354.235C422.321 357.686 421.907 360.851 423.461 364.327C425.679 364.446 427.822 364.637 429.966 364.661C434.982 364.715 439.999 364.647 445.013 364.719C446.52 364.742 448.11 364.828 449.492 365.344C450.322 365.654 451.159 366.76 451.395 367.666C451.768 369.095 450.841 370.334 449.467 370.623C447.573 371.021 445.594 371.025 443.651 371.178C441.322 371.363 438.881 370.776 436.799 371.891C435.629 377.556 436.066 378.254 440.803 378.415C443.418 378.505 446.041 378.397 448.651 378.534C451.047 378.66 452.341 379.873 452.144 381.517C451.964 383.005 450.849 384.019 448.982 384.252C447.904 384.386 446.808 384.39 445.719 384.414C442.909 384.477 440.097 384.516 436.616 384.576Z" fill="white"/>
<path d="M428.818 44.2063C430.303 44.3068 431.848 44.2417 433.293 44.5901C433.928 44.743 434.732 45.7173 434.777 46.3645C434.821 47.0131 434.044 48.2834 433.573 48.3089C430.39 48.4845 427.189 48.4845 424.007 48.3118C423.542 48.2863 422.773 47.0103 422.818 46.3603C422.864 45.7103 423.662 44.7331 424.294 44.583C425.74 44.2375 427.284 44.3068 428.818 44.2063Z" fill="white"/>
<path d="M405.828 49.0227C404.335 48.8386 402.789 48.8188 401.368 48.3897C400.77 48.2084 400.08 47.159 400.08 46.5033C400.08 45.8505 400.86 44.6595 401.352 44.6326C404.362 44.4612 407.392 44.4655 410.401 44.6467C410.887 44.6765 411.659 45.8816 411.65 46.5345C411.642 47.1888 410.937 48.224 410.333 48.4024C408.909 48.8244 407.361 48.8386 405.828 49.0227Z" fill="white"/>
<path d="M382.869 44.1765C384.624 44.311 386.173 44.2502 387.607 44.6254C388.198 44.7798 388.913 45.8773 388.902 46.533C388.89 47.1958 388.141 48.3018 387.554 48.4222C384.385 49.0665 381.144 49.3285 378.027 48.2268C377.462 48.0271 377.016 46.9111 376.923 46.1662C376.868 45.73 377.549 44.8534 378.017 44.76C379.683 44.4215 381.402 44.3337 382.869 44.1765Z" fill="white"/>
<path d="M365.376 44.9087C366.312 46.7851 366.042 48.3372 364.09 48.5383C361.319 48.8243 358.484 48.6799 355.694 48.4816C355.134 48.442 354.373 47.4096 354.192 46.7086C353.87 45.461 354.702 44.5617 355.909 44.4881C359.11 44.2912 362.352 43.8225 365.376 44.9087Z" fill="white"/>
<path d="M453.773 45.5771C453.773 47.0598 453.908 48.7833 453.708 50.4685C453.625 51.1738 452.956 52.1382 452.333 52.3591C451.727 52.5744 450.341 52.1849 450.161 51.7247C449.473 49.9474 448.126 49.0679 446.642 48.1219C446.116 47.7863 445.753 46.5429 445.95 45.9099C446.145 45.2825 447.087 44.5815 447.787 44.4767C449.678 44.1921 451.659 43.9258 453.773 45.5771Z" fill="white"/>
<path d="M454.01 113.503C453.814 114.688 453.674 116.206 453.258 117.644C453.13 118.087 452.252 118.569 451.718 118.569C451.183 118.569 450.205 118.012 450.184 117.655C449.999 114.428 449.931 111.189 449.982 107.956C449.988 107.568 450.953 106.84 451.4 106.894C452.139 106.981 453.309 107.462 453.431 107.981C453.828 109.658 453.828 111.427 454.01 113.503Z" fill="white"/>
<path d="M454.021 68.4388C453.833 70.2402 453.847 71.7781 453.434 73.1929C453.278 73.731 452.17 74.187 451.442 74.289C451.009 74.3499 450.054 73.6546 450.046 73.2849C449.979 70.1127 450.027 66.9348 450.19 63.7655C450.207 63.4227 451.155 62.8917 451.682 62.8789C452.204 62.8662 453.102 63.3052 453.205 63.7074C453.622 65.3417 453.798 67.0354 454.021 68.4388Z" fill="white"/>
<path d="M453.986 91.3295C453.823 92.5021 453.719 94.0032 453.353 95.4378C453.24 95.8825 452.348 96.4928 451.928 96.4135C451.21 96.2776 450.036 95.6913 450.008 95.2339C449.822 92.2557 449.807 89.2548 449.97 86.2752C449.995 85.7951 451.21 84.9978 451.831 85.0389C452.454 85.0799 453.385 85.8957 453.539 86.5273C453.89 87.9675 453.845 89.5012 453.986 91.3295Z" fill="white"/>
<path d="M340.168 44.2273C341.046 44.3335 342.021 44.2202 342.722 44.6054C343.358 44.9538 344.069 45.8516 344.06 46.4988C344.052 47.1715 343.294 48.3243 342.738 48.4078C341.074 48.6542 339.322 48.6415 337.66 48.3809C337.093 48.2917 336.32 47.1743 336.312 46.5186C336.305 45.87 337.011 44.9722 337.646 44.6196C338.345 44.2301 339.319 44.3363 340.168 44.2273Z" fill="white"/>
<path d="M377.221 346.99C377.063 348.446 375.558 349.793 374.129 349.757C372.341 349.713 371.01 347.99 371.342 346.15C371.626 344.578 373.076 343.547 374.646 343.802C376.181 344.053 377.379 345.536 377.221 346.99Z" fill="white"/>
<path d="M356.39 99.8886C356.526 101.398 355.322 102.871 353.787 103.074C352.214 103.28 350.74 102.211 350.466 100.663C350.155 98.9058 351.602 97.0846 353.332 97.0577C354.786 97.0336 356.256 98.396 356.39 99.8886Z" fill="white"/>
<path d="M351.37 336.476C351.533 338.174 350.525 339.453 348.892 339.627C347.237 339.803 345.825 338.846 345.504 337.33C345.154 335.673 346.63 333.805 348.363 333.715C349.8 333.64 351.223 334.947 351.37 336.476Z" fill="white"/>
<path d="M357.41 86.4494C359.023 86.288 360.352 87.3572 360.543 88.9716C360.737 90.6059 359.774 92.0178 358.247 92.3435C356.612 92.6919 354.739 91.2007 354.651 89.4786C354.577 88.0709 355.918 86.5995 357.41 86.4494Z" fill="white"/>
<path d="M352.705 350.127C351.074 349.981 350.057 348.744 350.174 347.048C350.282 345.506 351.638 344.201 353.095 344.237C354.842 344.281 356.278 346.033 355.98 347.759C355.716 349.292 354.356 350.274 352.705 350.127Z" fill="white"/>
<path d="M513.736 104.336C513.697 105.898 512.436 107.161 510.863 107.215C509.06 107.276 507.538 105.646 507.787 103.921C508 102.448 509.491 101.226 510.965 101.315C512.404 101.403 513.773 102.897 513.736 104.336Z" fill="white"/>
<path d="M523.789 108.532C523.656 110.029 522.274 111.164 520.667 111.096C519.019 111.027 517.896 109.837 517.908 108.179C517.922 106.366 519.621 104.909 521.309 105.265C522.843 105.588 523.924 107.012 523.789 108.532Z" fill="white"/>
<path d="M500.385 105.901C501.999 106.009 503.216 107.289 503.162 108.823C503.111 110.251 501.68 111.691 500.262 111.74C498.524 111.8 497.008 110.129 497.215 108.384C497.399 106.845 498.745 105.791 500.385 105.901Z" fill="white"/>
<path d="M382.021 110.356C381.872 111.896 380.549 113.088 379.026 113.057C377.296 113.022 376.041 111.37 376.329 109.511C376.574 107.932 377.864 107.033 379.561 107.254C381.127 107.456 382.173 108.777 382.021 110.356Z" fill="white"/>
<path d="M528.514 118.669C528.499 120.298 527.341 121.466 525.709 121.499C524.122 121.532 522.825 120.355 522.75 118.815C522.662 116.996 524.14 115.48 525.882 115.605C527.305 115.707 528.53 117.133 528.514 118.669Z" fill="white"/>
<path d="M498.87 119.666C498.758 121.148 497.311 122.544 495.881 122.551C494.097 122.56 492.787 120.927 493.037 119.006C493.251 117.361 494.558 116.358 496.224 116.561C497.746 116.748 498.98 118.196 498.87 119.666Z" fill="white"/>
<path d="M524.449 129.736C524.314 131.374 523.122 132.393 521.45 132.301C519.893 132.215 518.613 130.923 518.631 129.456C518.654 127.655 520.229 126.328 522.055 126.574C523.637 126.787 524.588 128.043 524.449 129.736Z" fill="white"/>
<path d="M503.365 129.87C503.411 131.418 502.174 132.868 500.704 132.987C498.984 133.127 497.325 131.513 497.407 129.778C497.476 128.337 498.941 127.017 500.46 127.029C502.089 127.044 503.317 128.244 503.365 129.87Z" fill="white"/>
<path d="M453.846 132.898C453.821 135.476 452.947 136.847 451.482 136.604C450.218 136.396 449.635 135.292 449.598 133.043C449.547 129.906 450.368 128.395 451.96 128.698C453.418 128.976 453.874 129.991 453.846 132.898Z" fill="white"/>
<path d="M363.732 348.442C365.229 348.435 366.619 349.675 366.754 351.138C366.911 352.845 365.383 354.219 363.465 354.095C361.82 353.991 360.708 352.775 360.802 351.185C360.892 349.677 362.203 348.449 363.732 348.442Z" fill="white"/>
<path d="M373.65 328.481C371.872 328.561 370.319 327.008 370.429 325.262C370.521 323.816 371.958 322.561 373.488 322.591C375.141 322.623 376.277 323.769 376.313 325.439C376.345 327.011 375.116 328.416 373.65 328.481Z" fill="white"/>
<path d="M366.277 321.563C366.257 323.065 364.997 324.475 363.561 324.604C361.872 324.755 360.433 323.191 360.536 321.313C360.624 319.722 361.861 318.632 363.511 318.689C365.052 318.742 366.298 320.037 366.277 321.563Z" fill="white"/>
<path d="M371.124 84.9819C371.081 86.6317 369.843 87.8312 368.224 87.7901C366.673 87.7519 365.329 86.3966 365.348 84.8926C365.368 83.3646 366.686 82.1325 368.311 82.1226C369.968 82.1127 371.166 83.332 371.124 84.9819Z" fill="white"/>
<path d="M358.278 107.616C359.783 107.789 360.875 109.158 360.807 110.787C360.739 112.427 359.517 113.613 357.92 113.589C356.117 113.562 354.778 111.923 355.084 110.111C355.348 108.527 356.74 107.44 358.278 107.616Z" fill="white"/>
<path d="M368.61 117.562C366.958 117.519 365.8 116.372 365.789 114.769C365.778 113.258 366.995 111.841 368.423 111.703C370.132 111.538 371.629 113.063 371.558 114.898C371.496 116.445 370.215 117.603 368.61 117.562Z" fill="white"/>
<path d="M513.993 134.069C513.982 135.626 512.726 136.972 511.255 137.004C509.764 137.035 508.315 135.79 508.162 134.347C507.984 132.659 509.529 131.064 511.296 131.115C512.816 131.159 514.005 132.461 513.993 134.069Z" fill="white"/>
<path d="M381.258 335.707C381.343 337.213 380.146 338.574 378.591 338.738C376.782 338.929 375.209 337.497 375.295 335.74C375.373 334.175 376.628 333.017 378.243 333.018C379.795 333.019 381.174 334.252 381.258 335.707Z" fill="white"/>
<path d="M355.606 325.911C355.695 327.622 354.671 328.874 353.115 328.953C351.482 329.037 350.195 328.017 349.986 326.473C349.741 324.678 351.091 323.052 352.832 323.045C354.306 323.039 355.521 324.295 355.606 325.911Z" fill="white"/>
<path d="M383.26 102.032C381.525 102.057 380.388 101.028 380.325 99.3723C380.263 97.7267 381.406 96.4748 383.01 96.4309C384.62 96.387 385.86 97.5284 385.954 99.1372C386.047 100.733 384.861 102.008 383.26 102.032Z" fill="white"/>
<path d="M378.397 85.9773C379.993 85.9971 381.313 87.3382 381.279 88.9073C381.245 90.4821 379.916 91.7085 378.271 91.6816C376.619 91.6547 375.333 90.3603 375.388 88.7813C375.445 87.2051 376.783 85.9575 378.397 85.9773Z" fill="white"/>
<path d="M451.957 161.928C491.008 161.472 523.495 193.993 523.555 233.586C523.612 270.098 494.624 305.257 451.919 305.279C411.201 305.3 380.282 272.554 380.347 233.543C380.417 191.717 414.728 161.349 451.957 161.928ZM451.669 167.222C417.107 167.072 385.618 195.253 385.688 233.833C385.753 269.955 414.799 300.143 452.208 299.932C491.513 299.711 518.469 267.168 518.197 233.295C517.904 196.711 488.213 167.058 451.669 167.222Z" fill="white"/>
<path d="M507.237 231.039C507.173 231.768 507.284 232.931 506.915 233.911C506.662 234.585 505.776 235.374 505.109 235.438C504.443 235.501 503.311 234.883 503.069 234.285C502.597 233.121 502.49 231.767 502.432 230.482C501.516 210.053 486.526 189.061 462.175 183.921C459.628 183.384 456.987 183.308 454.396 182.974C453.332 182.836 452.17 182.792 451.265 182.308C450.653 181.981 450.048 180.929 450.104 180.259C450.159 179.612 451.02 178.572 451.608 178.513C453.762 178.294 455.977 178.183 458.119 178.439C484.309 181.563 504.525 202.039 507.115 228.712C507.18 229.365 507.186 230.022 507.237 231.039Z" fill="white"/>
<path d="M80.2344 172.317H63.1942C62.024 172.317 61.0742 171.367 61.0742 170.193V101.689C61.0742 100.515 62.024 99.5645 63.1942 99.5645H80.2344C81.4046 99.5645 82.3543 100.515 82.3543 101.689V170.193C82.3543 171.367 81.4046 172.317 80.2344 172.317ZM65.3141 168.069H78.1144V103.813H65.3141V168.069Z" fill="white"/>
<path d="M120.85 172.317H103.809C102.639 172.317 101.689 171.367 101.689 170.193V137.788C101.689 136.614 102.639 135.664 103.809 135.664H120.85C122.02 135.664 122.97 136.614 122.97 137.788V170.193C122.97 171.367 122.02 172.317 120.85 172.317ZM105.929 168.069H118.73V139.913H105.929V168.069Z" fill="white"/>
<path d="M161.466 172.318H144.425C143.254 172.318 142.305 171.368 142.305 170.193V91.2999C142.305 90.1258 143.254 89.1755 144.425 89.1755H161.466C162.636 89.1755 163.586 90.1258 163.586 91.2999V170.193C163.586 171.368 162.636 172.318 161.466 172.318ZM146.545 168.069H159.346V93.4242H146.545V168.069Z" fill="white"/>
<path d="M202.082 172.318H185.04C183.87 172.318 182.92 171.367 182.92 170.193V133.042C182.92 131.868 183.87 130.917 185.04 130.917H202.082C203.252 130.917 204.201 131.868 204.201 133.042V170.193C204.201 171.367 203.252 172.318 202.082 172.318ZM187.161 168.069H199.963V135.166H187.161V168.069Z" fill="white"/>
<path d="M242.699 172.318H225.657C224.487 172.318 223.537 171.368 223.537 170.194V111.705C223.537 110.531 224.487 109.581 225.657 109.581H242.699C243.869 109.581 244.819 110.531 244.819 111.705V170.194C244.819 171.368 243.869 172.318 242.699 172.318ZM227.777 168.069H240.579V113.829H227.777V168.069Z" fill="white"/>
<path d="M283.315 172.318H266.273C265.103 172.318 264.153 171.368 264.153 170.193V91.2999C264.153 90.1258 265.103 89.1755 266.273 89.1755H283.315C284.485 89.1755 285.435 90.1258 285.435 91.2999V170.193C285.435 171.368 284.485 172.318 283.315 172.318ZM268.393 168.069H281.195V93.4242H268.393V168.069Z" fill="white"/>
<path d="M126.996 274.844H62.8973C61.7271 274.844 60.7773 273.894 60.7773 272.72V208.488C60.7773 207.314 61.7271 206.364 62.8973 206.364H126.996C128.166 206.364 129.116 207.314 129.116 208.488V272.72C129.116 273.892 128.168 274.844 126.996 274.844ZM65.0173 270.595H124.876V210.613H65.0173V270.595Z" fill="white"/>
<path d="M126.996 366.315H62.8973C61.7271 366.315 60.7773 365.364 60.7773 364.19V299.959C60.7773 298.785 61.7271 297.834 62.8973 297.834H126.996C128.166 297.834 129.116 298.785 129.116 299.959V364.19C129.116 365.363 128.168 366.315 126.996 366.315ZM65.0173 362.066H124.876V302.083H65.0173V362.066Z" fill="white"/>
<path d="M206.944 227.535L155.295 227.52C154.123 227.52 153.175 226.569 153.175 225.396C153.175 224.223 154.125 223.272 155.295 223.272L206.944 223.286C208.116 223.286 209.064 224.238 209.064 225.41C209.064 226.584 208.114 227.535 206.944 227.535Z" fill="white"/>
<path d="M504.209 48.4519L487.892 48.4378C486.72 48.4378 485.772 47.4846 485.773 46.312C485.775 45.1393 486.723 44.189 487.893 44.189H487.895L504.211 44.2031C505.382 44.2031 506.331 45.1563 506.329 46.329C506.328 47.5016 505.379 48.4519 504.209 48.4519Z" fill="white"/>
<path d="M496.047 56.62C494.874 56.62 493.925 55.6669 493.927 54.4942L493.941 38.1447C493.942 36.972 494.891 36.0217 496.061 36.0217H496.062C497.234 36.0217 498.182 36.9749 498.181 38.1476L498.167 54.497C498.165 55.6711 497.218 56.62 496.047 56.62Z" fill="white"/>
<path d="M391.069 427.336L374.752 427.322C373.581 427.322 372.632 426.368 372.634 425.196C372.635 424.023 373.584 423.073 374.754 423.073H374.755L391.071 423.087C392.243 423.087 393.191 424.04 393.19 425.213C393.188 426.385 392.24 427.336 391.069 427.336Z" fill="white"/>
<path d="M382.903 435.504C381.73 435.504 380.782 434.55 380.783 433.378L380.797 417.028C380.799 415.856 381.747 414.905 382.917 414.905H382.919C384.09 414.905 385.039 415.858 385.037 417.031L385.023 433.381C385.022 434.553 384.073 435.504 382.903 435.504Z" fill="white"/>
<path d="M245.914 246.051L155.295 246.036C154.123 246.036 153.175 245.085 153.175 243.912C153.175 242.738 154.125 241.788 155.295 241.788L245.914 241.802C247.086 241.802 248.034 242.754 248.034 243.926C248.034 245.099 247.085 246.051 245.914 246.051Z" fill="white"/>
<path d="M245.914 264.565L155.295 264.551C154.123 264.551 153.175 263.599 153.175 262.426C153.175 261.252 154.125 260.302 155.295 260.302L245.914 260.316C247.086 260.316 248.034 261.268 248.034 262.44C248.034 263.615 247.085 264.565 245.914 264.565Z" fill="white"/>
<path d="M206.944 317.333L155.295 317.319C154.123 317.319 153.175 316.368 153.175 315.195C153.175 314.022 154.125 313.071 155.295 313.071L206.944 313.085C208.116 313.085 209.064 314.036 209.064 315.209C209.064 316.382 208.114 317.333 206.944 317.333Z" fill="white"/>
<path d="M245.914 335.848L155.295 335.834C154.123 335.834 153.175 334.882 153.175 333.709C153.175 332.535 154.125 331.585 155.295 331.585L245.914 331.599C247.086 331.599 248.034 332.551 248.034 333.723C248.034 334.898 247.085 335.848 245.914 335.848Z" fill="white"/>
<path d="M245.914 354.364L155.295 354.349C154.123 354.349 153.175 353.398 153.175 352.225C153.175 351.051 154.125 350.101 155.295 350.101L245.914 350.115C247.086 350.115 248.034 351.067 248.034 352.239C248.034 353.413 247.085 354.364 245.914 354.364Z" fill="white"/>
<defs>
<linearGradient id="paint0_linear" x1="364.564" y1="226.751" x2="525.63" y2="226.751" gradientUnits="userSpaceOnUse">
<stop stop-color="#F6D265"/>
<stop offset="1" stop-color="#FDA084"/>
</linearGradient>
<linearGradient id="paint1_linear" x1="415.608" y1="393.518" x2="474.58" y2="393.518" gradientUnits="userSpaceOnUse">
<stop stop-color="#F6D265"/>
<stop offset="1" stop-color="#FDA084"/>
</linearGradient>
<linearGradient id="paint2_linear" x1="56.4199" y1="129.13" x2="73.4615" y2="129.13" gradientUnits="userSpaceOnUse">
<stop stop-color="#F6D265"/>
<stop offset="1" stop-color="#FDA084"/>
</linearGradient>
<linearGradient id="paint3_linear" x1="97.0352" y1="147.18" x2="114.077" y2="147.18" gradientUnits="userSpaceOnUse">
<stop stop-color="#F6D265"/>
<stop offset="1" stop-color="#FDA084"/>
</linearGradient>
<linearGradient id="paint4_linear" x1="137.653" y1="123.936" x2="154.695" y2="123.936" gradientUnits="userSpaceOnUse">
<stop stop-color="#F6D265"/>
<stop offset="1" stop-color="#FDA084"/>
</linearGradient>
<linearGradient id="paint5_linear" x1="178.267" y1="144.806" x2="195.308" y2="144.806" gradientUnits="userSpaceOnUse">
<stop stop-color="#F6D265"/>
<stop offset="1" stop-color="#FDA084"/>
</linearGradient>
<linearGradient id="paint6_linear" x1="218.884" y1="134.139" x2="235.925" y2="134.139" gradientUnits="userSpaceOnUse">
<stop stop-color="#F6D265"/>
<stop offset="1" stop-color="#FDA084"/>
</linearGradient>
<linearGradient id="paint7_linear" x1="259.5" y1="123.936" x2="276.542" y2="123.936" gradientUnits="userSpaceOnUse">
<stop stop-color="#F6D265"/>
<stop offset="1" stop-color="#FDA084"/>
</linearGradient>
<linearGradient id="paint8_linear" x1="56.1211" y1="233.791" x2="120.22" y2="233.791" gradientUnits="userSpaceOnUse">
<stop stop-color="#F6D265"/>
<stop offset="1" stop-color="#FDA084"/>
</linearGradient>
<linearGradient id="paint9_linear" x1="56.1211" y1="325.264" x2="120.22" y2="325.264" gradientUnits="userSpaceOnUse">
<stop stop-color="#F6D265"/>
<stop offset="1" stop-color="#FDA084"/>
</linearGradient>
</defs>
</svg>
