<svg width="241" height="60" viewBox="0 0 241 60" fill="none" xmlns="http://www.w3.org/2000/svg">
<g clip-path="url(#clip0)">
<path d="M85.9948 30.3673C86.6146 30.4588 87.2277 30.5913 87.8301 30.7641C88.3887 30.9198 88.9335 31.1222 89.4587 31.3693V32.6816H78.0436V31.3693C78.4831 31.1144 78.9478 30.9064 79.4301 30.7488C79.8963 30.5939 80.3711 30.4666 80.852 30.3673V10.7905C80.3374 10.7024 79.8313 10.5697 79.3394 10.3938C78.8878 10.234 78.4522 10.0314 78.0385 9.78853V8.47629H82.3696C83.2839 8.47629 84.3293 8.43052 85.5058 8.33896C86.6822 8.24741 87.7629 8.20164 88.7478 8.20164C89.9334 8.20072 91.1159 8.32172 92.2772 8.56276C93.3708 8.77978 94.4163 9.1951 95.3629 9.78853C96.2646 10.3634 97.0126 11.1528 97.5411 12.0875C98.1199 13.181 98.4034 14.4089 98.3629 15.6478C98.4418 18.0157 97.3329 20.2643 95.4133 21.6292C94.4804 22.2938 93.4345 22.7799 92.3276 23.0635C91.1529 23.3767 89.9427 23.534 88.7276 23.5315H87.3713L86.5495 23.4959C86.3603 23.492 86.1716 23.475 85.9848 23.445L85.9948 30.3673ZM87.8453 10.4447C87.4849 10.4392 87.1246 10.4562 86.7663 10.4955C86.5061 10.5291 86.2484 10.5801 85.9948 10.6481V21.1664C86.297 21.25 86.6092 21.2911 86.9226 21.2884H87.931C88.5393 21.2908 89.1434 21.1858 89.7159 20.9782C90.283 20.7693 90.7989 20.4397 91.2285 20.0118C91.6989 19.5323 92.0647 18.9589 92.3024 18.3283C92.5957 17.5315 92.736 16.6857 92.7159 15.836C92.7159 13.9914 92.2705 12.6351 91.3797 11.7671C90.4268 10.8631 89.1521 10.3861 87.8453 10.4447Z" fill="white"/>
<path d="M109.718 32.6866H99.4016V31.3693C99.8464 31.1358 100.304 30.9286 100.773 30.7488C101.238 30.5681 101.722 30.4401 102.215 30.3673V10.7905C101.758 10.6752 101.277 10.543 100.773 10.3938C100.291 10.2539 99.8302 10.0504 99.4016 9.78854V8.4763H109.723V9.78854C109.349 10.0125 108.959 10.2096 108.558 10.3785C108.105 10.5689 107.634 10.7088 107.151 10.7956V23.9231L106.808 26.6188L108.487 23.7807L117.124 11.6043V10.7905C116.179 10.5813 115.267 10.2389 114.417 9.77328V8.4763H124.723V9.78854C124.313 10.052 123.868 10.2557 123.402 10.3938C122.911 10.5464 122.407 10.6786 121.889 10.7905V30.3673C122.404 30.4525 122.91 30.5853 123.402 30.7641C123.857 30.9313 124.298 31.1337 124.723 31.3693V32.6816H114.417V31.3693C114.734 31.2116 115.118 31.0285 115.566 30.8353C116.025 30.6357 116.501 30.4791 116.988 30.3673V17.2602L117.331 14.5289L115.788 17.2602L107.01 29.6044V30.3673C107.512 30.4756 108.004 30.6253 108.482 30.8149C108.939 30.998 109.351 31.1828 109.718 31.3693V32.6866Z" fill="white"/>
<path d="M132.558 22.204C132.406 21.6453 132.324 21.0693 132.316 20.49C132.286 19.8632 132.368 19.2362 132.558 18.6386L141.23 18.7759C141.116 15.9853 140.444 13.8762 139.213 12.4487C137.941 11.0004 136.087 10.2112 134.171 10.3023C133.639 10.2922 133.108 10.3573 132.593 10.4956C132.23 10.5838 131.887 10.7428 131.585 10.9635L129.8 15.4597H128.393C128.304 15.0943 128.235 14.7241 128.186 14.3509C128.119 13.866 128.057 13.3472 128 12.7945C127.943 12.2418 127.902 11.6773 127.879 11.1008C127.855 10.5244 127.855 10.0056 127.879 9.54445C128.329 9.25015 128.813 9.01271 129.321 8.83747C129.886 8.63718 130.466 8.48075 131.055 8.36954C131.656 8.25671 132.262 8.17691 132.87 8.13048C133.475 8.0864 134.018 8.06267 134.499 8.05928C136.284 8.03219 138.061 8.29494 139.763 8.83747C142.733 9.76454 145.089 12.0631 146.106 15.0274C146.698 16.7415 146.987 18.5476 146.958 20.3628C147.018 22.3878 146.675 24.4044 145.949 26.2933C144.779 29.269 142.302 31.5252 139.249 32.3968C137.722 32.854 136.137 33.0836 134.544 33.0783C133.223 33.0842 131.904 32.9735 130.602 32.7477C129.535 32.5872 128.503 32.2431 127.551 31.7305C127.551 31.3372 127.573 30.8641 127.617 30.3114C127.66 29.7587 127.717 29.1772 127.788 28.5669C127.855 27.9565 127.929 27.3445 128.01 26.7307C128.091 26.117 128.176 25.5694 128.267 25.0879H129.709L131.56 30.4844C131.926 30.6517 132.322 30.745 132.724 30.759C133.228 30.8048 133.733 30.8251 134.166 30.8251C135.069 30.8221 135.96 30.6153 136.773 30.2199C137.647 29.7935 138.414 29.1727 139.017 28.4041C139.722 27.4921 140.257 26.4579 140.595 25.3524C141.022 23.9694 141.236 22.5285 141.23 21.08L132.558 22.204Z" fill="white"/>
<path d="M155.252 11.1364C154.561 11.0275 153.885 10.8416 153.235 10.582C152.672 10.3618 152.128 10.0965 151.607 9.78854V8.4763H171.391V9.78854C170.993 10.0231 170.575 10.2205 170.141 10.3785C169.636 10.5674 169.114 10.7071 168.583 10.7956V30.3673C169.1 30.4522 169.607 30.5902 170.096 30.7793C170.565 30.9675 171.003 31.1608 171.417 31.3693V32.6816H160.844V31.3693C161.248 31.154 161.666 30.9637 162.094 30.7997C162.537 30.6277 162.99 30.4833 163.45 30.3673V10.699H157.859C157.788 14.2051 157.62 17.1279 157.354 19.4676C157.166 21.4164 156.856 23.3513 156.427 25.2608C156.157 26.5082 155.749 27.7212 155.212 28.8771C154.817 29.683 154.353 30.4523 153.825 31.176C153.399 31.7722 152.835 32.2541 152.181 32.5798C151.589 32.899 150.931 33.0732 150.26 33.0885C149.916 32.9354 149.62 32.691 149.403 32.3815C149.112 31.9971 148.859 31.5849 148.647 31.1506C148.416 30.6855 148.227 30.2004 148.082 29.701C147.942 29.2399 147.855 28.7636 147.825 28.282L148.773 26.9748L152.852 27.9921C153.191 27.2331 153.482 26.4534 153.724 25.6575C154.055 24.5518 154.312 23.4253 154.496 22.2854C154.724 20.9494 154.907 19.371 155.045 17.5501C155.183 15.7292 155.252 13.5913 155.252 11.1364Z" fill="white"/>
<path d="M190.571 32.6867H178.778V31.3693C179.235 31.1862 179.755 30.9963 180.336 30.7997C180.911 30.6053 181.501 30.4607 182.101 30.3673V10.699H178.123L175.929 16.6142H174.523C174.432 16.1531 174.341 15.5648 174.25 14.8493C174.16 14.1339 174.079 13.3964 174.008 12.6368C173.938 11.8773 173.881 11.1211 173.837 10.3684C173.793 9.61562 173.771 8.97646 173.771 8.45088H195.613C195.613 9.00358 195.59 9.64953 195.543 10.3887C195.496 11.1279 195.439 11.8773 195.371 12.6368C195.301 13.3964 195.222 14.1288 195.134 14.8341C195.047 15.5394 194.956 16.1327 194.862 16.6142H193.42L191.227 10.699H187.244V30.3673C187.839 30.4826 188.427 30.62 189.008 30.7793C189.545 30.9246 190.067 31.1221 190.566 31.3693L190.571 32.6867Z" fill="white"/>
<path d="M196.193 20.5815C196.178 18.8847 196.433 17.1966 196.949 15.5817C197.414 14.1159 198.173 12.7622 199.178 11.6043C200.181 10.4717 201.424 9.58012 202.813 8.99509C206.013 7.7498 209.557 7.7498 212.756 8.99509C214.143 9.5775 215.381 10.4696 216.376 11.6043C217.371 12.7663 218.122 14.1193 218.585 15.5817C219.101 17.1966 219.357 18.8847 219.341 20.5815C219.356 22.2765 219.101 23.9629 218.585 25.5761C218.122 27.0386 217.371 28.3915 216.376 29.5535C215.381 30.6889 214.143 31.5811 212.756 32.1628C209.557 33.4095 206.012 33.4095 202.813 32.1628C201.424 31.5777 200.181 30.6862 199.178 29.5535C198.173 28.3957 197.414 27.0419 196.949 25.5761C196.434 23.9629 196.178 22.2765 196.193 20.5815ZM202.022 20.5815C202.014 21.9556 202.128 23.3276 202.365 24.681C202.552 25.815 202.916 26.9119 203.444 27.931C203.889 28.79 204.536 29.5253 205.329 30.0723C206.15 30.607 207.111 30.8783 208.087 30.8505C208.99 30.8833 209.878 30.6093 210.608 30.0723C211.332 29.5064 211.908 28.7715 212.287 27.931C212.757 26.8999 213.075 25.8049 213.23 24.681C213.432 23.3241 213.53 21.9535 213.523 20.5815C213.531 19.208 213.421 17.8364 213.195 16.482C213.024 15.3532 212.684 14.2573 212.186 13.2319C211.76 12.3696 211.123 11.631 210.336 11.0855C209.504 10.5483 208.53 10.2771 207.543 10.3073C206.599 10.2715 205.668 10.5445 204.891 11.0855C204.143 11.6427 203.55 12.3857 203.171 13.2421C202.714 14.2743 202.413 15.3699 202.279 16.4922C202.101 17.8478 202.015 19.2141 202.022 20.5815Z" fill="white"/>
<path d="M228.18 30.3673C228.799 30.4589 229.412 30.5914 230.015 30.7641C230.573 30.9201 231.118 31.1226 231.644 31.3693V32.6816H220.223V31.3693C220.663 31.1144 221.128 30.9064 221.61 30.7488C222.076 30.5939 222.551 30.4666 223.032 30.3673V10.7905C222.517 10.7024 222.011 10.5697 221.519 10.3938C221.068 10.2335 220.632 10.0309 220.218 9.78853V8.47629H224.554C225.469 8.47629 226.514 8.43052 227.691 8.33897C228.867 8.24741 229.946 8.20164 230.928 8.20164C232.113 8.20065 233.296 8.32165 234.457 8.56276C235.551 8.77978 236.596 9.1951 237.543 9.78853C238.445 10.3631 239.193 11.1526 239.721 12.0875C240.3 13.1808 240.584 14.4088 240.543 15.6478C240.622 18.0157 239.513 20.2643 237.593 21.6292C236.66 22.2939 235.614 22.78 234.507 23.0635C233.333 23.3767 232.122 23.534 230.907 23.5315H229.551L228.729 23.4959C228.54 23.492 228.351 23.475 228.165 23.445L228.18 30.3673ZM230.03 10.4447C229.67 10.4392 229.309 10.4562 228.951 10.4955C228.691 10.5288 228.433 10.5798 228.18 10.6481V21.1664C228.482 21.2503 228.794 21.2914 229.107 21.2884H230.116C230.724 21.2907 231.328 21.1857 231.901 20.9782C232.468 20.7692 232.984 20.4396 233.413 20.0118C233.884 19.5326 234.25 18.9591 234.487 18.3283C234.781 17.5315 234.921 16.6857 234.901 15.836C234.901 13.9914 234.455 12.6351 233.565 11.7671C232.612 10.8626 231.337 10.3855 230.03 10.4447Z" fill="white"/>
<path d="M240.553 41.384H79.0772V42.4674H240.553V41.384Z" fill="white"/>
<path d="M45.8604 57.9346H13.2335C6.31077 57.9262 0.700076 52.2686 0.688965 45.2852V12.6724C0.697299 5.68703 6.3088 0.026352 13.2335 0.0179443H45.8554C52.78 0.026352 58.3916 5.68703 58.3999 12.6724V45.2852C58.3888 52.2666 52.7812 57.9234 45.8604 57.9346ZM13.2335 2.33725C7.57744 2.34286 2.99368 6.96679 2.98812 12.6724V45.2852C2.99924 50.9868 7.58137 55.6046 13.2335 55.6102H45.8554C51.5094 55.6074 56.0946 50.9888 56.1058 45.2852V12.6724C56.1002 6.96679 51.5165 2.34286 45.8604 2.33725H13.2335Z" fill="white"/>
<path fill-rule="evenodd" clip-rule="evenodd" d="M13.294 21.5225L28.7226 44.7003C28.7226 44.7003 48.9562 5.98412 64.0167 4.63119C49.0419 4.08696 35.3881 20.2458 27.689 30.0266L13.294 21.5225Z" fill="white"/>
<path d="M116.625 56.6529L118.138 49.4508H120.346C120.646 49.445 120.946 49.462 121.244 49.5016C121.529 49.5443 121.803 49.6427 122.05 49.7916C122.267 49.931 122.442 50.1281 122.555 50.3612C122.84 50.9575 122.786 51.6625 122.413 52.2075C122.155 52.5356 121.803 52.7754 121.405 52.8941C121.746 52.9904 122.049 53.1913 122.272 53.4689C122.464 53.7285 122.565 54.0452 122.56 54.3691C122.557 54.7737 122.44 55.1691 122.222 55.5085C122.003 55.8659 121.693 56.1575 121.324 56.3528C120.94 56.5533 120.512 56.6547 120.079 56.6478L116.625 56.6529ZM117.749 55.8391H119.378C119.67 55.847 119.961 55.8317 120.25 55.7933C120.512 55.7559 120.762 55.6641 120.986 55.5237C121.176 55.3961 121.329 55.2208 121.43 55.0151C121.536 54.8164 121.591 54.5946 121.591 54.3691C121.611 54.0781 121.495 53.7944 121.279 53.6011C120.919 53.3867 120.5 53.294 120.084 53.3366H118.269L117.749 55.8391ZM118.435 52.5279H119.882C120.409 52.5742 120.936 52.4571 121.395 52.1922C121.699 51.9664 121.869 51.6011 121.849 51.2208C121.85 51.0412 121.801 50.8647 121.707 50.7122C121.617 50.5685 121.485 50.4566 121.329 50.3917C121.041 50.307 120.741 50.2726 120.442 50.29H118.929L118.435 52.5279Z" fill="white"/>
<path d="M127.163 56.0069C126.9 56.2441 126.602 56.4396 126.281 56.5867C125.994 56.7104 125.685 56.7728 125.373 56.7698C124.948 56.7904 124.532 56.6383 124.218 56.3476C123.926 56.0639 123.766 55.6683 123.78 55.2592C123.774 54.9882 123.842 54.721 123.976 54.4861C124.099 54.2682 124.272 54.0832 124.48 53.9469C124.726 53.8016 124.996 53.7033 125.277 53.657C125.651 53.6024 126.029 53.5718 126.407 53.5655C126.81 53.5665 127.211 53.5065 127.596 53.3875C127.657 53.1912 127.691 52.9876 127.697 52.7822C127.713 52.5858 127.63 52.3946 127.475 52.2736C127.212 52.0927 126.896 52.0067 126.578 52.0294C126.257 52.0159 125.94 52.103 125.67 52.2787C125.432 52.4542 125.255 52.7019 125.166 52.9856L124.274 52.9094C124.427 52.4296 124.729 52.0124 125.136 51.7192C125.585 51.4262 126.114 51.2821 126.649 51.3072C127.191 51.2794 127.726 51.443 128.161 51.77C128.439 51.9814 128.598 52.3146 128.59 52.6652C128.584 52.9908 128.544 53.3148 128.469 53.6316L128.181 54.9286C128.1 55.2618 128.055 55.6028 128.045 55.9458C128.056 56.1846 128.091 56.4216 128.151 56.6528H127.244C127.195 56.4408 127.168 56.2244 127.163 56.0069ZM127.491 54.0131C127.362 54.0636 127.228 54.1011 127.092 54.125C126.951 54.1521 126.714 54.1792 126.381 54.2063C126.015 54.2269 125.652 54.2849 125.297 54.3793C125.105 54.435 124.937 54.553 124.818 54.715C124.713 54.8632 124.657 55.0412 124.657 55.2236C124.65 55.4566 124.744 55.6812 124.914 55.839C125.116 56.0116 125.376 56.0975 125.64 56.0781C126.255 56.071 126.82 55.7337 127.123 55.1931C127.309 54.8228 127.433 54.4241 127.491 54.0131Z" fill="white"/>
<path d="M130.818 51.4344H131.691L130.97 54.7658C130.917 54.9878 130.885 55.2143 130.874 55.4423C130.862 55.5989 130.915 55.7536 131.02 55.8695C131.142 55.9735 131.3 56.0247 131.459 56.0119C131.754 56.013 132.043 55.9224 132.286 55.7525C132.525 55.593 132.729 55.3852 132.886 55.1422C133.068 54.813 133.196 54.4555 133.264 54.0843L133.844 51.4293H134.716L133.975 54.8319C133.928 55.0323 133.901 55.2367 133.894 55.4423C133.883 55.5964 133.934 55.7483 134.035 55.8644C134.148 55.9675 134.297 56.0191 134.449 56.0069C134.872 55.9854 135.272 55.8038 135.568 55.4982C135.976 55.0851 136.239 54.5497 136.319 53.9724V53.8656L136.854 51.4394H137.716L136.591 56.6579H135.724L135.911 55.7831C135.554 56.3852 134.922 56.767 134.227 56.8003C133.908 56.8135 133.596 56.7045 133.354 56.4951C133.148 56.3238 133.017 56.0769 132.991 55.8085C132.755 56.1068 132.466 56.3586 132.139 56.5511C131.862 56.7125 131.547 56.7984 131.227 56.8003C130.902 56.8108 130.585 56.7024 130.334 56.4951C130.102 56.2971 129.97 56.0036 129.976 55.6966C129.998 55.3106 130.056 54.9275 130.148 54.5522L130.818 51.4344Z" fill="white"/>
<path d="M142.874 51.4344H143.746L143.277 53.6113H145.677L146.136 51.4344H146.998L145.899 56.6528H145.022L145.526 54.3182H143.136L142.632 56.6528H141.76L142.874 51.4344Z" fill="white"/>
<path d="M151.244 56.0069C150.98 56.2441 150.683 56.4396 150.361 56.5868C150.075 56.7105 149.765 56.7728 149.454 56.7699C149.028 56.7904 148.613 56.6384 148.299 56.3477C148.007 56.064 147.847 55.6684 147.86 55.2593C147.855 54.9883 147.923 54.721 148.057 54.4862C148.18 54.2682 148.353 54.0833 148.561 53.947C148.807 53.8017 149.077 53.7034 149.358 53.6571C149.732 53.6025 150.109 53.5719 150.487 53.5655C150.891 53.5665 151.292 53.5065 151.677 53.3875C151.738 53.1912 151.771 52.9877 151.778 52.7823C151.794 52.5859 151.71 52.3947 151.556 52.2737C151.293 52.0928 150.977 52.0068 150.659 52.0295C150.338 52.0159 150.021 52.103 149.751 52.2787C149.513 52.4543 149.336 52.7019 149.247 52.9857L148.37 52.9145C148.523 52.4348 148.825 52.0175 149.232 51.7243C149.681 51.4313 150.21 51.2873 150.744 51.3124C151.287 51.2845 151.822 51.4482 152.257 51.7752C152.535 51.9865 152.694 52.3198 152.686 52.6704C152.68 52.996 152.639 53.32 152.565 53.6368L152.277 54.9337C152.196 55.267 152.151 55.608 152.141 55.951C152.151 56.1898 152.187 56.4268 152.247 56.658H151.344C151.289 56.445 151.255 56.2268 151.244 56.0069ZM151.571 54.0131C151.443 54.0636 151.309 54.1011 151.173 54.125C151.032 54.1522 150.795 54.1793 150.462 54.2064C150.096 54.227 149.733 54.2849 149.378 54.3793C149.186 54.435 149.018 54.553 148.899 54.715C148.794 54.8633 148.737 55.0412 148.738 55.2237C148.731 55.4567 148.825 55.6813 148.995 55.8391C149.196 56.0117 149.457 56.0976 149.721 56.0781C150.336 56.071 150.901 55.7338 151.203 55.1931C151.389 54.8228 151.514 54.4242 151.571 54.0131Z" fill="white"/>
<path d="M155.691 50.1018L155.857 49.3287H156.487C157.16 49.2761 157.824 49.5104 158.318 49.9747C158.771 50.5493 158.987 51.2778 158.923 52.0092C158.985 53.2227 158.729 54.4314 158.181 55.5136C157.769 56.3127 156.942 56.8057 156.049 56.7851C155.493 56.807 154.95 56.61 154.536 56.2358C154.112 55.8067 153.893 55.2129 153.936 54.6082C153.913 53.758 154.204 52.9296 154.753 52.2838C155.229 51.6852 155.948 51.3357 156.709 51.3327C157.008 51.3242 157.304 51.4019 157.561 51.5565C157.812 51.7216 158.01 51.9566 158.131 52.233C158.14 51.8926 158.118 51.5521 158.065 51.2157C158.021 50.993 157.922 50.785 157.778 50.6105C157.63 50.4272 157.432 50.2912 157.208 50.2188C156.893 50.1304 156.567 50.091 156.24 50.1018H155.691ZM154.839 54.6387C154.823 55.0066 154.939 55.3679 155.166 55.656C155.395 55.9236 155.734 56.0684 156.084 56.0476C156.656 56.0451 157.18 55.7269 157.45 55.2186C157.784 54.6862 157.959 54.0683 157.954 53.4384C157.967 53.0718 157.853 52.7122 157.632 52.4212C157.415 52.1478 157.081 51.9964 156.734 52.0143C156.158 52.0099 155.625 52.3216 155.343 52.8281C155.003 53.3673 154.828 53.995 154.839 54.6337V54.6387Z" fill="white"/>
<path d="M163.612 54.8778L164.469 54.9642C164.31 55.448 164.013 55.8741 163.617 56.19C163.178 56.5744 162.614 56.781 162.034 56.7698C161.665 56.7731 161.302 56.6802 160.98 56.5003C160.662 56.3242 160.406 56.052 160.249 55.7221C160.076 55.3589 159.989 54.9601 159.997 54.5573C159.998 53.9813 160.133 53.4137 160.39 52.8992C160.607 52.4127 160.957 51.9982 161.398 51.704C161.803 51.4468 162.271 51.311 162.749 51.3123C163.301 51.2867 163.837 51.4973 164.227 51.8922C164.613 52.3241 164.812 52.8933 164.781 53.474C164.781 53.7364 164.759 53.9985 164.716 54.2572H160.909C160.904 54.3487 160.904 54.4404 160.909 54.5319C160.881 54.9334 160.999 55.3314 161.242 55.6509C161.442 55.8979 161.742 56.0401 162.059 56.0374C162.38 56.0315 162.691 55.9268 162.951 55.7373C163.248 55.5197 163.477 55.2216 163.612 54.8778ZM161.05 53.5859H163.955V53.3875C163.977 53.0179 163.858 52.6535 163.622 52.3703C163.402 52.133 163.091 52.0032 162.77 52.0142C162.398 52.0201 162.041 52.1589 161.761 52.4059C161.413 52.7189 161.165 53.1298 161.05 53.5859Z" fill="white"/>
<path d="M169.163 51.4344H170.02L169.541 53.6621H169.597C169.788 53.6504 169.968 53.567 170.101 53.4282C170.35 53.1594 170.565 52.8604 170.741 52.5381C170.924 52.1776 171.188 51.8657 171.512 51.6276C171.73 51.4987 171.977 51.4303 172.228 51.4293C172.413 51.4296 172.597 51.4588 172.773 51.5157L172.571 52.0244C172.478 51.9887 172.379 51.9681 172.279 51.9633C172.136 51.9616 171.999 52.0164 171.896 52.1159C171.727 52.3042 171.585 52.5147 171.472 52.7415C171.231 53.2766 170.802 53.7025 170.267 53.9368C170.429 53.9996 170.578 54.0928 170.706 54.2114C170.9 54.4268 171.046 54.6818 171.134 54.9591L171.785 56.6223H170.877L170.373 55.2948C170.275 54.9913 170.129 54.706 169.939 54.4505C169.795 54.2974 169.603 54.2002 169.395 54.1758L168.891 56.6172H168.023L168.528 54.1758C168.348 54.1823 168.173 54.2386 168.023 54.3386C167.724 54.5956 167.459 54.8914 167.237 55.2185L166.168 56.6172H165.099L166.465 54.8777C166.782 54.4306 167.233 54.0987 167.751 53.9317C167.569 53.8205 167.419 53.6648 167.313 53.479C167.177 53.1766 167.086 52.8564 167.04 52.5279C167.024 52.3658 166.976 52.2085 166.899 52.0651C166.838 51.9891 166.744 51.9475 166.647 51.9532C166.521 51.9615 166.395 51.9836 166.274 52.0193L166.334 51.4547C166.485 51.4184 166.639 51.3996 166.793 51.3988C167.042 51.3757 167.287 51.4695 167.459 51.6531C167.634 51.933 167.751 52.2464 167.802 52.5737C167.844 52.877 167.949 53.168 168.109 53.4282C168.249 53.575 168.448 53.6499 168.649 53.6316L169.163 51.4344Z" fill="white"/>
<path d="M174.19 51.4344H175.062L174.593 53.6113H176.993L177.452 51.4344H178.314L177.225 56.6528H176.348L176.852 54.3182H174.462L173.958 56.6528H173.086L174.19 51.4344Z" fill="white"/>
<path d="M180.185 51.4344H181.067L180.623 53.4688H181.561C181.994 53.4489 182.427 53.4935 182.847 53.6011C183.103 53.6915 183.318 53.8721 183.452 54.1097C183.597 54.3445 183.672 54.6163 183.669 54.893C183.671 55.2542 183.568 55.608 183.371 55.9102C183.203 56.1998 182.944 56.425 182.635 56.5511C182.193 56.679 181.733 56.734 181.274 56.7138H179.07L180.185 51.4344ZM180.089 55.9458H181.193C181.507 55.9603 181.82 55.9312 182.126 55.8594C182.305 55.8002 182.463 55.6887 182.58 55.5389C182.706 55.377 182.772 55.1753 182.766 54.9693C182.774 54.7859 182.717 54.6057 182.605 54.4607C182.514 54.3344 182.382 54.2444 182.232 54.2063C181.975 54.1676 181.715 54.1523 181.455 54.1606H180.447L180.089 55.9458ZM185.287 51.4344H186.18L185.06 56.6528H184.168L185.287 51.4344Z" fill="white"/>
<path d="M190.465 55.712C190.015 56.3304 189.318 56.7188 188.56 56.775C188.204 56.7921 187.857 56.6679 187.591 56.4291C187.352 56.2134 187.218 55.9033 187.223 55.5797C187.246 55.1991 187.301 54.8213 187.39 54.4506L188.015 51.4395H188.897L188.207 54.7761C188.158 54.9881 188.129 55.2045 188.121 55.422C188.112 55.5931 188.176 55.76 188.297 55.8798C188.44 55.994 188.62 56.0518 188.802 56.0426C189.053 56.0405 189.3 55.9777 189.523 55.8595C189.759 55.7345 189.967 55.5613 190.133 55.3508C190.312 55.132 190.453 54.8844 190.551 54.6184C190.657 54.3097 190.739 53.9935 190.798 53.6724L191.267 51.4192H192.149L191.07 56.6376H190.269L190.465 55.712ZM188.867 49.4H189.442C189.461 49.5919 189.544 49.7716 189.679 49.9086C189.822 50.0219 190.001 50.0797 190.183 50.0714C190.399 50.0773 190.611 50.0131 190.788 49.8883C190.964 49.7598 191.101 49.5834 191.181 49.3796H191.781C191.688 49.7491 191.477 50.0776 191.181 50.3155C190.894 50.5437 190.538 50.6658 190.173 50.6614C189.832 50.6758 189.499 50.5512 189.25 50.3155C189.009 50.0703 188.872 49.7403 188.867 49.3949V49.4Z" fill="white"/>
<path d="M197.328 51.4344H201.452L200.353 56.6528H199.475L200.423 52.1515H198.033L197.086 56.6528H196.213L197.328 51.4344Z" fill="white"/>
<path d="M205.723 56.0069C205.459 56.2441 205.162 56.4396 204.84 56.5868C204.553 56.7103 204.244 56.7727 203.933 56.7699C203.507 56.7899 203.092 56.6379 202.778 56.3477C202.486 56.064 202.326 55.6684 202.339 55.2593C202.334 54.9883 202.402 54.7209 202.536 54.4861C202.659 54.2682 202.832 54.0833 203.04 53.947C203.286 53.8014 203.556 53.7031 203.837 53.6571C204.211 53.6025 204.588 53.5719 204.966 53.5655C205.37 53.5665 205.771 53.5065 206.156 53.3875C206.216 53.1912 206.25 52.9876 206.257 52.7823C206.273 52.5859 206.189 52.3947 206.035 52.2737C205.772 52.0928 205.456 52.0068 205.138 52.0295C204.817 52.0159 204.5 52.103 204.23 52.2787C203.992 52.4543 203.815 52.7019 203.726 52.9857L202.874 52.9145C203.027 52.4346 203.329 52.0173 203.736 51.7243C204.185 51.4313 204.714 51.2873 205.249 51.3124C205.791 51.2845 206.326 51.4482 206.761 51.7752C207.039 51.9865 207.198 52.3198 207.19 52.6704C207.184 52.996 207.144 53.32 207.069 53.6368L206.781 54.9337C206.701 55.2671 206.655 55.608 206.645 55.951C206.656 56.1898 206.691 56.4267 206.751 56.658H205.859C205.792 56.4461 205.746 56.228 205.723 56.0069ZM206.05 54.0131C205.922 54.0636 205.788 54.1011 205.652 54.125C205.511 54.1522 205.274 54.1793 204.941 54.2064C204.575 54.227 204.212 54.2849 203.857 54.3793C203.665 54.4347 203.496 54.5527 203.378 54.715C203.273 54.8633 203.216 55.0412 203.217 55.2237C203.21 55.4567 203.304 55.6813 203.474 55.8391C203.675 56.0117 203.936 56.0976 204.2 56.0781C204.815 56.071 205.38 55.7338 205.682 55.1931C205.868 54.8229 205.993 54.4242 206.05 54.0131Z" fill="white"/>
<path d="M207.85 58.6517L209.363 51.4344H210.175L210.023 52.1617C210.257 51.8987 210.531 51.6754 210.835 51.5005C211.069 51.3793 211.329 51.3165 211.592 51.3174C212.06 51.3071 212.508 51.5064 212.817 51.8616C213.174 52.2975 213.354 52.8536 213.321 53.418C213.327 53.9258 213.237 54.4301 213.054 54.9032C212.906 55.3016 212.683 55.6677 212.398 55.9814C212.174 56.2273 211.907 56.4306 211.612 56.5816C211.357 56.7071 211.078 56.7732 210.795 56.7749C210.17 56.7738 209.604 56.4009 209.353 55.8238L208.768 58.6568L207.85 58.6517ZM209.595 54.5217C209.582 54.7941 209.611 55.0669 209.681 55.3304C209.845 55.7663 210.262 56.0513 210.724 56.0425C211.265 56.0189 211.742 55.6817 211.95 55.1778C212.252 54.6409 212.413 54.0353 212.418 53.418C212.439 53.052 212.328 52.6909 212.106 52.4007C211.912 52.1688 211.625 52.0364 211.324 52.0396C211.103 52.0377 210.886 52.0994 210.699 52.2176C210.487 52.3569 210.305 52.5386 210.165 52.7517C209.986 53.0191 209.848 53.3123 209.756 53.6214C209.656 53.9114 209.6 54.2149 209.59 54.5217H209.595Z" fill="white"/>
<path d="M214.324 56.6529L215.403 51.4344H216.286L216.104 52.294C216.352 51.9909 216.649 51.7314 216.981 51.526C217.24 51.3857 217.53 51.3139 217.823 51.3175C218.114 51.3075 218.399 51.3991 218.63 51.5768C218.85 51.7583 219 52.0122 219.054 52.294C219.282 51.9984 219.564 51.7498 219.886 51.5616C220.166 51.402 220.482 51.3179 220.803 51.3175C221.155 51.2902 221.504 51.4014 221.776 51.6277C222.001 51.8582 222.119 52.1745 222.099 52.4974C222.085 52.7664 222.048 53.0336 221.988 53.296L221.292 56.658H220.41L221.121 53.2095C221.17 53.0111 221.2 52.8084 221.212 52.6043C221.22 52.4527 221.161 52.3054 221.05 52.2024C220.923 52.0971 220.761 52.0444 220.597 52.0549C220.313 52.061 220.036 52.1435 219.795 52.294C219.533 52.4418 219.314 52.6556 219.16 52.9145C218.968 53.2922 218.833 53.6968 218.761 54.1149L218.257 56.658H217.375L218.106 53.1332C218.146 52.9664 218.172 52.7961 218.181 52.6246C218.188 52.4714 218.131 52.3222 218.025 52.2126C217.915 52.1051 217.765 52.0481 217.612 52.0549C217.333 52.063 217.062 52.1454 216.825 52.294C216.548 52.4562 216.317 52.6874 216.155 52.9654C215.948 53.348 215.805 53.762 215.731 54.1912L215.227 56.658L214.324 56.6529Z" fill="white"/>
<path d="M224.217 51.4344H225.089L224.62 53.6113H227.02L227.479 51.4344H228.341L227.252 56.6528H226.375L226.879 54.3182H224.489L223.985 56.6528H223.112L224.217 51.4344Z" fill="white"/>
<path d="M232.919 54.8778L233.776 54.9642C233.617 55.4479 233.321 55.8739 232.924 56.19C232.486 56.5744 231.922 56.781 231.341 56.7698C230.973 56.7731 230.61 56.6802 230.287 56.5003C229.969 56.3242 229.713 56.052 229.556 55.7221C229.383 55.3589 229.297 54.9601 229.304 54.5573C229.306 53.9813 229.441 53.4137 229.697 52.8992C229.915 52.4125 230.264 51.998 230.706 51.704C231.11 51.4468 231.579 51.311 232.057 51.3123C232.609 51.2867 233.145 51.4973 233.534 51.8922C233.92 52.3241 234.12 52.8933 234.089 53.474C234.089 53.7364 234.067 53.9985 234.023 54.2572H230.217C230.211 54.3487 230.211 54.4404 230.217 54.5319C230.188 54.9334 230.307 55.3314 230.549 55.6509C230.75 55.8979 231.05 56.0401 231.366 56.0374C231.687 56.0312 231.998 55.9265 232.259 55.7373C232.555 55.5199 232.784 55.2217 232.919 54.8778ZM230.358 53.5859H233.262V53.3875C233.284 53.0179 233.165 52.6538 232.929 52.3703C232.71 52.133 232.399 52.0032 232.077 52.0142C231.706 52.0201 231.348 52.1589 231.069 52.4059C230.721 52.7191 230.473 53.1299 230.358 53.5859Z" fill="white"/>
<path d="M234.734 58.6517L236.247 51.4344H237.059L236.908 52.1617C237.141 51.8987 237.415 51.6754 237.719 51.5005C237.953 51.3793 238.213 51.3165 238.476 51.3174C238.944 51.3071 239.392 51.5064 239.701 51.8616C240.058 52.2975 240.238 52.8536 240.205 53.418C240.212 53.9258 240.121 54.4301 239.938 54.9032C239.79 55.3017 239.567 55.6678 239.282 55.9814C239.058 56.2271 238.791 56.4304 238.496 56.5816C238.241 56.7071 237.962 56.7732 237.679 56.7749C237.054 56.7725 236.49 56.4 236.237 55.8238L235.652 58.6568L234.734 58.6517ZM236.479 54.5217C236.465 54.7938 236.492 55.0666 236.56 55.3304C236.723 55.7663 237.141 56.0513 237.603 56.0425C238.144 56.0201 238.622 55.6825 238.829 55.1778C239.131 54.6409 239.292 54.0353 239.297 53.418C239.318 53.052 239.207 52.6909 238.985 52.4007C238.791 52.1688 238.504 52.0364 238.203 52.0396C237.982 52.0377 237.765 52.0994 237.578 52.2176C237.365 52.3568 237.184 52.5386 237.044 52.7517C236.865 53.0191 236.727 53.3123 236.635 53.6214C236.539 53.9119 236.486 54.2154 236.479 54.5217Z" fill="white"/>
</g>
<defs>
<clipPath id="clip0">
<rect width="240" height="59" fill="white" transform="translate(0.688965 0.0179443)"/>
</clipPath>
</defs>
</svg>
